<svg width="48" height="48" viewBox="0 0 48 48" fill="none" xmlns="http://www.w3.org/2000/svg">
  <path d="M14.2502 42.0018H5.77085C5.34508 42.0018 5 41.657 5 41.2309V16.5638C5 16.347 5.09124 16.1407 5.25113 15.9947C5.41102 15.8486 5.62601 15.7734 5.8404 15.7959L14.3197 16.5668C14.744 16.6053 15.0563 16.9799 15.018 17.4048C14.9792 17.8287 14.6034 18.141 14.1806 18.1025L6.54169 17.4078V40.46H14.2502C14.6759 40.46 15.021 40.8048 15.021 41.2309C15.021 41.6569 14.6759 42.0017 14.2502 42.0017L14.2502 42.0018Z" fill="white"/>
  <path d="M32.7502 42.0007H14.2499C13.8241 42.0007 13.479 41.6559 13.479 41.2299V5.77085C13.479 5.34478 13.8241 5 14.2499 5C14.6756 5 15.0207 5.34478 15.0207 5.77085V40.459H31.9794V5.77085C31.9794 5.34478 32.3244 5 32.7502 5C33.176 5 33.521 5.34478 33.521 5.77085V41.2299C33.521 41.6559 33.176 42.0007 32.7502 42.0007Z" fill="white"/>
  <path d="M41.2299 42.0016H32.7505C32.3248 42.0016 31.9797 41.6568 31.9797 41.2307C31.9797 40.8046 32.3248 40.4599 32.7505 40.4599H40.459V17.4077L32.8201 18.1026C32.3943 18.1424 32.0216 17.8286 31.9827 17.4049C31.9442 16.9804 32.2567 16.6055 32.681 16.567L41.1603 15.7961C41.3747 15.7729 41.5897 15.8488 41.7496 15.9948C41.9095 16.1406 42.0007 16.3468 42.0007 16.5636V41.2308C42.0007 41.6568 41.6556 42.0016 41.2299 42.0016L41.2299 42.0016Z" fill="white"/>
  <path d="M34.2933 6.54463H12.7103C12.2845 6.54463 11.9395 6.19985 11.9395 5.77378C11.9395 5.34771 12.2845 5.00293 12.7103 5.00293H34.2933C34.719 5.00293 35.0641 5.34771 35.0641 5.77378C35.0641 6.20015 34.719 6.54463 34.2933 6.54463Z" fill="white"/>
  <path d="M26.5856 42.0006C26.1598 42.0006 25.8147 41.6558 25.8147 41.2298V31.2126H21.1896V41.2298C21.1896 41.6558 20.8446 42.0006 20.4188 42.0006C19.993 42.0006 19.6479 41.6558 19.6479 41.2298V30.4417C19.6479 30.0157 19.993 29.6709 20.4188 29.6709H26.5856C27.0114 29.6709 27.3564 30.0157 27.3564 30.4417V41.2298C27.3564 41.6558 27.0114 42.0006 26.5856 42.0006Z" fill="white"/>
  <path d="M23.5023 21.1916C23.0765 21.1916 22.7314 20.8468 22.7314 20.4207V12.7123C22.7314 12.2862 23.0765 11.9414 23.5023 11.9414C23.9281 11.9414 24.2731 12.2862 24.2731 12.7123V20.4207C24.2731 20.8471 23.9278 21.1916 23.5023 21.1916Z" fill="white"/>
  <path d="M27.3573 17.3366H19.6488C19.223 17.3366 18.8779 16.9918 18.8779 16.5658C18.8779 16.1397 19.223 15.7949 19.6488 15.7949H27.3573C27.783 15.7949 28.1281 16.1397 28.1281 16.5658C28.1281 16.9921 27.7827 17.3366 27.3573 17.3366Z" fill="white"/>
  </svg>
  