<svg width="48" height="48" viewBox="0 0 48 48" fill="none" xmlns="http://www.w3.org/2000/svg">
  <path fillRule="evenodd" clipRule="evenodd" d="M29 12.5C29 12.7761 29.2764 13 29.6174 13H39.3826C39.7236 13 40 12.7761 40 12.5C40 12.2239 39.7236 12 39.3826 12H29.6174C29.2764 12 29 12.2239 29 12.5Z" fill="white" />
  <path fillRule="evenodd" clipRule="evenodd" d="M7 40.3504C7 40.7091 7.29085 41 7.64964 41H12.3504C12.7091 41 13 40.7091 13 40.3504V35.6496C13 35.2909 12.7091 35 12.3504 35H7.64964C7.29085 35 7 35.2909 7 35.6496V40.3504ZM8.29927 39.7007V36.2993H11.7007V39.7007H8.29927Z" fill="white" />
  <path fillRule="evenodd" clipRule="evenodd" d="M24 44.3397C24 44.7044 24.2927 45 24.6538 45H44.3462C44.7073 45 45 44.7044 45 44.3397V3.66029C45 3.29562 44.7073 3 44.3462 3H24.6538C24.2927 3 24 3.29562 24 3.66029V44.3397ZM25.3076 43.6794V4.32058H43.6924V43.6794H25.3076Z" fill="white" />
  <path fillRule="evenodd" clipRule="evenodd" d="M34.5 19C34.7761 19 35 18.6984 35 18.3264V7.67357C35 7.30157 34.7761 7 34.5 7C34.2239 7 34 7.30157 34 7.67357V18.3264C34 18.6984 34.2239 19 34.5 19Z" fill="white" />
  <path fillRule="evenodd" clipRule="evenodd" d="M15 32.3504C15 32.7092 15.2909 33 15.6496 33H20.3504C20.7091 33 21 32.7092 21 32.3504V27.6496C21 27.2908 20.7091 27 20.3504 27H15.6496C15.2909 27 15 27.2908 15 27.6496V32.3504ZM16.2993 31.7008V28.2992H19.7007V31.7008H16.2993Z" fill="white" />
  <path fillRule="evenodd" clipRule="evenodd" d="M7 32.3504C7 32.7092 7.29085 33 7.64964 33H12.3504C12.7091 33 13 32.7092 13 32.3504V27.6496C13 27.2908 12.7091 27 12.3504 27H7.64964C7.29085 27 7 27.2908 7 27.6496V32.3504ZM8.29927 31.7008V28.2992H11.7007V31.7008H8.29927Z" fill="white" />
  <path fillRule="evenodd" clipRule="evenodd" d="M3 44.3329C3 44.7013 3.29572 45 3.6605 45H24.3395C24.7043 45 25 44.7013 25 44.3329V15.6671C25 15.2987 24.7043 15 24.3395 15H3.6605C3.29572 15 3 15.2987 3 15.6671V44.3329ZM4.321 43.6657V16.3343H23.679V43.6657H4.321Z" fill="white" />
  <path fillRule="evenodd" clipRule="evenodd" d="M15 25.3504C15 25.7091 15.2909 26 15.6496 26H20.3504C20.7091 26 21 25.7091 21 25.3504V20.6496C21 20.2909 20.7091 20 20.3504 20H15.6496C15.2909 20 15 20.2909 15 20.6496V25.3504ZM16.2993 24.7007V21.2993H19.7007V24.7007H16.2993Z" fill="white" />
  <path fillRule="evenodd" clipRule="evenodd" d="M7 25.3504C7 25.7091 7.29085 26 7.64964 26H12.3504C12.7091 26 13 25.7091 13 25.3504V20.6496C13 20.2909 12.7091 20 12.3504 20H7.64964C7.29085 20 7 20.2909 7 20.6496V25.3504ZM8.29927 24.7007V21.2993H11.7007V24.7007H8.29927Z" fill="white" />
  <path fillRule="evenodd" clipRule="evenodd" d="M30 44.3373C30 44.7033 30.3009 45 30.672 45H38.328C38.6991 45 39 44.7033 39 44.3373V30.6627C39 30.2967 38.6991 30 38.328 30H30.672C30.3009 30 30 30.2967 30 30.6627V44.3373ZM31.344 43.6745V31.3255H37.656V43.6745H31.344Z" fill="white" />
  <path fillRule="evenodd" clipRule="evenodd" d="M15 40.3504C15 40.7091 15.2909 41 15.6496 41H20.3504C20.7091 41 21 40.7091 21 40.3504V35.6496C21 35.2909 20.7091 35 20.3504 35H15.6496C15.2909 35 15 35.2909 15 35.6496V40.3504ZM16.2993 39.7007V36.2993H19.7007V39.7007H16.2993Z" fill="white" />
</svg>