<svg width="48" height="48" viewBox="0 0 48 48" fill="none" xmlns="http://www.w3.org/2000/svg">
	<path d="M42.756 30.7947L37.0961 26.3921L36.4927 23.376C36.4677 23.2532 36.4074 23.14 36.3191 23.0509L35.4818 22.1994L36.9655 20.7157C37.2191 20.4617 37.2191 20.0502 36.9655 19.7965L31.7645 14.5955C31.6426 14.4733 31.4772 14.4045 31.3048 14.4042H21.1799L12.4348 5.29582L12.3971 5.25606C12.2691 5.09324 12.126 4.94319 11.9698 4.80735L11.9147 4.7496C11.8836 4.72289 11.8503 4.69939 11.8146 4.67936C11.253 4.24285 10.5625 4.00457 9.85112 4.00195C8.98939 4.00311 8.1631 4.34588 7.55362 4.95507C6.94442 5.56456 6.60169 6.39084 6.6005 7.25257V33.9077H4.65012C4.29111 33.9077 4 34.1988 4 34.5578V42.3593C4 42.5317 4.0685 42.6971 4.19039 42.819C4.31229 42.9409 4.47773 43.0094 4.65012 43.0094H9.85112C10.0235 43.0094 10.189 42.9409 10.3109 42.819C10.4327 42.6971 10.5012 42.5317 10.5012 42.3593V34.5578C10.5012 34.3854 10.4327 34.22 10.3109 34.0981C10.189 33.9762 10.0235 33.9077 9.85112 33.9077H7.90075V9.83598C8.46002 10.2661 9.14557 10.5006 9.85112 10.5029C10.6159 10.5009 11.3554 10.2295 11.9396 9.73617C12.5239 9.24277 12.9157 8.55926 13.0457 7.80556L20.2531 15.3136V25.4555C20.2531 25.6279 20.3216 25.7933 20.4435 25.9152L25.6445 31.1162C25.8985 31.3699 26.31 31.3699 26.564 31.1162L28.0546 29.6253L28.895 30.4658V30.4661C28.9859 30.5567 29.1014 30.6185 29.2274 30.6434L32.2641 31.2512L37.32 36.9392C37.5585 37.2085 37.9701 37.2335 38.2394 36.9952C38.3686 36.8809 38.4472 36.7195 38.4577 36.5471C38.4681 36.3747 38.4098 36.2052 38.2951 36.0761L33.0942 30.2249C33.0001 30.119 32.8742 30.047 32.7354 30.0195L29.6798 29.4076L24.3741 24.1013L28.4446 18.86L29.9085 18.384L35.2558 23.8224L35.8691 26.8857C35.8993 27.0387 35.9837 27.1757 36.1071 27.2712L41.9582 31.822C42.0937 31.9326 42.2682 31.9837 42.442 31.964C42.6156 31.9442 42.7743 31.8551 42.8817 31.7173C42.9891 31.5791 43.0364 31.4038 43.0126 31.2305C42.9891 31.057 42.8968 30.9006 42.7563 30.7964L42.756 30.7947ZM9.20064 41.7093H5.29989V35.2081H9.20064V41.7093ZM34.5703 21.2717L31.9362 18.5931L32.93 17.599L35.5865 20.2555L34.5703 21.2717ZM11.8011 7.25275C11.8011 7.76994 11.5957 8.26627 11.23 8.6319C10.8643 8.99753 10.3679 9.20308 9.8508 9.20308C9.33367 9.20308 8.83727 8.9976 8.47164 8.6319C8.10602 8.2662 7.90046 7.76987 7.90046 7.25275C7.90046 6.73562 8.10595 6.23922 8.47164 5.87359C8.83734 5.50796 9.33367 5.30241 9.8508 5.30241C10.2859 5.30415 10.7076 5.45304 11.0477 5.72441L11.4613 6.15541H11.461C11.6827 6.47844 11.8014 6.86097 11.8011 7.25282L11.8011 7.25275ZM26.1039 29.7381L23.4474 27.0816L24.4786 26.0504L27.1351 28.7069L26.1039 29.7381ZM29.8888 17.0239L27.8525 17.6871H27.8528C27.7292 17.7275 27.6206 17.8038 27.5405 17.9062L22.9897 23.7574C22.7885 24.0163 22.8117 24.3843 23.0436 24.6162L23.5591 25.1316L22.5282 26.1629L21.553 25.1877V15.7048H31.0359L32.0111 16.68L31.0249 17.6661L30.5535 17.1864C30.3806 17.0105 30.1234 16.9478 29.8889 17.0239L29.8888 17.0239Z" fill="white" />
</svg>
