<svg width="49" height="48" viewBox="0 0 49 48" fill="none" xmlns="http://www.w3.org/2000/svg">
  <path d="M42.2276 42.4989H6.7708C6.34506 42.4989 6 42.1541 6 41.7281V13.9793C6 13.6722 6.18216 13.3943 6.46368 13.2724L24.1921 5.56436C24.3884 5.47855 24.6109 5.47855 24.8066 5.56436L42.535 13.2724C42.8162 13.3943 42.9984 13.6722 42.9984 13.9793V41.7281C42.9984 42.1541 42.6533 42.4989 42.2276 42.4989ZM7.5416 40.9573H41.4568V14.4842L24.4992 7.11189L7.5416 14.4842V40.9573Z" fill="white" />
  <path d="M20.6454 42.4976H11.3958C10.9701 42.4976 10.625 42.1529 10.625 41.7268V26.3108C10.625 25.8848 10.9701 25.54 11.3958 25.54H20.6454C21.0711 25.54 21.4162 25.8848 21.4162 26.3108V41.7268C21.4162 42.1529 21.0711 42.4976 20.6454 42.4976ZM12.1666 40.956H19.8746V27.0816H12.1666V40.956Z" fill="white" />
  <path d="M36.0604 36.3312H26.8108C26.3851 36.3312 26.04 35.9865 26.04 35.5604V26.3108C26.04 25.8848 26.3851 25.54 26.8108 25.54H36.0604C36.4862 25.54 36.8312 25.8848 36.8312 26.3108V35.5604C36.8312 35.9865 36.4862 36.3312 36.0604 36.3312ZM27.5816 34.7896H35.2896V27.0816H27.5816V34.7896Z" fill="white" />
  <path d="M23.7298 20.1461C23.304 20.1461 22.959 19.8013 22.959 19.3753V11.6673C22.959 11.2412 23.304 10.8965 23.7298 10.8965C24.1555 10.8965 24.5006 11.2412 24.5006 11.6673V19.3753C24.5006 19.8013 24.1555 20.1461 23.7298 20.1461Z" fill="white" />
  <path d="M27.5813 16.2916H19.8733C19.4476 16.2916 19.1025 15.9468 19.1025 15.5208C19.1025 15.0948 19.4476 14.75 19.8733 14.75H27.5813C28.0071 14.75 28.3521 15.0948 28.3521 15.5208C28.3521 15.9468 28.0071 16.2916 27.5813 16.2916Z" fill="white" />
</svg>