<svg width="40" height="40" viewBox="0 0 40 40" fill="none" xmlns="http://www.w3.org/2000/svg">
	<circle cx="20" cy="20" r="19.5" fill="white" stroke="#DADCE0" />
	<path d="M29.0479 27L10.8796 26.913C10.39 26.913 9.99109 26.5301 10.0002 26.0603L10.0636 13.8441C10.0636 13.3743 10.4625 12.9914 10.9521 13.0001L29.1204 13.0872C29.61 13.0872 30.0089 13.47 29.9998 13.9399L29.9364 26.156C29.9364 26.6259 29.5375 27 29.0479 27Z" fill="#0E3FB5" />
	<path d="M28.1866 14.8186L20.5529 20.4568C20.2266 20.7004 19.7642 20.7004 19.4378 20.4481L11.8677 14.7402" fill="#0E3FB5" />
	<path d="M28.1866 14.8186L20.5529 20.4568C20.2266 20.7004 19.7642 20.7004 19.4378 20.4481L11.8677 14.7402" fill="transparent" stroke="white" stroke-width="0.8" stroke-miterlimit="10" stroke-linecap="round" stroke-linejoin="round" />
</svg>
