<svg width="48" height="48" viewBox="0 0 48 48" fill="none" xmlns="http://www.w3.org/2000/svg">
  <mask id="path-1-outside-1_2402_42435" maskUnits="userSpaceOnUse" x="10" y="2" width="28" height="44" fill="black">
  <rect fill="white" x="10" y="2" width="28" height="44"/>
  <path d="M13.8578 37.7747H15.5482C14.8122 39.1694 14.4015 40.7402 14.4015 42.3731V44.8711C14.4015 45.1574 14.6332 45.3895 14.9199 45.3895H33.7631C34.0494 45.3895 34.2815 45.1574 34.2815 44.8711V42.3731C34.2815 40.7402 33.8705 39.1699 33.1348 37.7747H34.8338C36.4092 37.7747 37.6912 36.4928 37.6912 34.9174L37.6908 16.3453C37.6908 9.08559 31.7856 3.09927 24.5271 3.00117C21.0198 2.95418 17.6823 4.31921 15.1208 6.84654C12.502 9.43023 11 13.0004 11 16.6416V34.9165C11.0004 36.4923 12.2822 37.7743 13.8577 37.7743L13.8578 37.7747ZM33.2442 44.3527H15.4375V42.3727C15.4375 40.5864 15.9845 38.8827 16.9461 37.4497C17.026 37.3311 17.1084 37.2144 17.193 37.1001C17.2314 37.0484 17.2704 36.9967 17.3098 36.9458C17.3995 36.8304 17.492 36.718 17.5867 36.6078C17.6286 36.559 17.6702 36.5098 17.7132 36.4617C17.8083 36.3554 17.907 36.2524 18.0071 36.1508C18.0549 36.1024 18.1019 36.0536 18.1503 36.0062C18.249 35.9104 18.3509 35.8186 18.454 35.7279C18.5086 35.6794 18.5624 35.6299 18.6184 35.5829C18.7186 35.4983 18.8223 35.4181 18.9265 35.3382C18.989 35.2901 19.0501 35.2405 19.1141 35.1939C19.2157 35.1198 19.3209 35.0504 19.4257 34.9806C19.4955 34.934 19.5641 34.8856 19.6354 34.8411C19.7388 34.7764 19.845 34.7171 19.951 34.6567C20.028 34.613 20.1031 34.5667 20.1816 34.5251C20.1928 34.5193 20.2044 34.5143 20.2156 34.5085C20.2206 34.5201 20.2279 34.5302 20.2326 34.5418C20.3096 34.7189 20.3974 34.8892 20.4954 35.0526C20.5124 35.0811 20.5297 35.109 20.5474 35.1372C20.6494 35.2995 20.7596 35.4549 20.8804 35.6017C20.897 35.6223 20.9151 35.6415 20.9324 35.6613C21.0611 35.8121 21.1967 35.9563 21.3435 36.0883C21.3478 36.0923 21.3522 36.0955 21.3565 36.0991C21.5029 36.23 21.6591 36.3493 21.821 36.4599C21.8395 36.4726 21.8568 36.4859 21.8756 36.4982C22.0347 36.6031 22.201 36.696 22.3723 36.7806C22.4012 36.795 22.4302 36.8095 22.4594 36.8232C22.6294 36.9024 22.8051 36.9707 22.9854 37.0282C23.0173 37.0383 23.0491 37.0473 23.0812 37.0571C23.2656 37.1113 23.4536 37.1558 23.6459 37.1858C23.6709 37.1898 23.6962 37.1919 23.7215 37.1952C23.925 37.2238 24.1314 37.2418 24.3411 37.2418C24.5508 37.2418 24.7572 37.2238 24.9607 37.1952C24.9857 37.1916 25.011 37.1898 25.0363 37.1858C25.2282 37.1554 25.4162 37.111 25.6006 37.0567C25.6324 37.0473 25.6646 37.0383 25.6964 37.0282C25.8764 36.9707 26.0521 36.9024 26.2224 36.8232C26.2517 36.8095 26.2802 36.795 26.3095 36.7806C26.4812 36.6963 26.6475 36.6034 26.8066 36.4982C26.825 36.4859 26.8424 36.4726 26.8604 36.4599C27.0228 36.3493 27.1793 36.2296 27.3257 36.0984C27.3297 36.0948 27.334 36.0915 27.338 36.0879C27.4851 35.9556 27.621 35.8117 27.7494 35.6606C27.7667 35.6404 27.7844 35.6212 27.8014 35.601C27.9218 35.4542 28.0321 35.2987 28.134 35.1364C28.1514 35.1082 28.1691 35.0804 28.1861 35.0518C28.2837 34.8881 28.3719 34.7182 28.4489 34.541C28.4536 34.5295 28.4608 34.5193 28.4659 34.5078C28.4771 34.5136 28.4887 34.5186 28.4999 34.5244C28.578 34.566 28.6524 34.6115 28.7287 34.6549C28.8353 34.7156 28.9427 34.7757 29.0468 34.8407C29.1166 34.8845 29.1838 34.9318 29.2522 34.9774C29.3588 35.0482 29.4655 35.1187 29.5689 35.1939C29.631 35.2391 29.6903 35.2872 29.7511 35.3338C29.857 35.4152 29.9629 35.4969 30.0648 35.5833C30.1191 35.6288 30.1708 35.6765 30.2239 35.7232C30.3287 35.8161 30.4329 35.9097 30.5337 36.0073C30.5804 36.0529 30.6252 36.0998 30.6711 36.1461C30.773 36.2495 30.8735 36.3543 30.9708 36.4628C31.0124 36.5091 31.0525 36.5568 31.093 36.6038C31.1888 36.7155 31.2828 36.8294 31.3735 36.9461C31.4122 36.996 31.4501 37.0466 31.4877 37.0976C31.5734 37.2126 31.6558 37.3297 31.7361 37.4493C32.6974 38.8827 33.2443 40.5862 33.2443 42.3723L33.2442 44.3527ZM21.9222 33.8219C21.9757 33.8064 22.0296 33.7923 22.0831 33.7778C22.334 33.7106 22.5859 33.6509 22.8383 33.6072C23.0866 33.5645 23.2685 33.3487 23.2685 33.0964V31.393C23.2685 31.1406 23.0866 30.9252 22.8383 30.8822C18.5504 30.1433 15.4386 26.457 15.4386 22.1171L15.4382 16.1862C15.9834 15.0301 17.8194 11.7994 21.6088 10.9079C21.9302 12.1941 22.9731 15.5677 25.4339 17.5501C26.5524 18.4514 27.9637 19.0652 29.7337 19.0652C30.0341 19.0652 30.3254 19.0468 30.6136 19.0146C30.7849 18.9965 30.9472 18.9643 31.1117 18.9354C31.1956 18.9202 31.2798 18.9134 31.3637 18.8953C31.3641 18.8953 31.3641 18.8949 31.3644 18.8949C31.3962 18.8881 31.4248 18.8783 31.4562 18.8714C31.5708 18.845 31.6836 18.8161 31.795 18.7843C31.8319 18.7738 31.8716 18.7662 31.9081 18.7554C32.0079 18.7247 32.1008 18.6849 32.1977 18.6498C32.3239 18.6039 32.4511 18.5605 32.5726 18.5074C32.6377 18.4788 32.6977 18.4441 32.7609 18.4134C32.894 18.3491 33.0263 18.284 33.1528 18.2106C33.1821 18.1933 33.2157 18.1813 33.245 18.1636V22.1174C33.245 26.4574 30.1328 30.1436 25.8453 30.8825C25.597 30.9252 25.4151 31.141 25.4151 31.3933V33.0967C25.4151 33.3491 25.597 33.5645 25.8453 33.6075C26.0973 33.6509 26.3485 33.7106 26.5991 33.7774C26.6537 33.7923 26.7082 33.8067 26.7632 33.8223C27.0072 33.8928 27.2505 33.9727 27.4916 34.0648C27.4996 34.0681 27.5082 34.0717 27.5162 34.075C27.5082 34.0945 27.5032 34.1158 27.4949 34.135C27.4649 34.2037 27.4287 34.2684 27.3944 34.3342C27.3456 34.4285 27.296 34.5221 27.2389 34.6107C27.1981 34.6747 27.1525 34.7354 27.1077 34.7965C27.047 34.8789 26.9837 34.9599 26.9157 35.0362C26.8655 35.0933 26.8127 35.1479 26.7585 35.201C26.6862 35.2726 26.6106 35.3406 26.5322 35.4056C26.4743 35.4537 26.4154 35.5007 26.3547 35.5448C26.2712 35.6052 26.184 35.6601 26.0951 35.7129C26.0319 35.7505 25.9693 35.7892 25.9035 35.8225C25.807 35.8724 25.7072 35.9132 25.6067 35.9533C25.542 35.9794 25.4784 36.0079 25.4115 36.03C25.2984 36.0672 25.1812 36.0936 25.0637 36.1189C25.0052 36.1316 24.9481 36.1496 24.8884 36.159C24.7095 36.188 24.5269 36.2049 24.3415 36.2049C24.156 36.2049 23.9734 36.188 23.7945 36.159C23.7341 36.1493 23.6766 36.1312 23.6177 36.1182C23.5009 36.0929 23.3845 36.0668 23.2717 36.03C23.2045 36.0079 23.1398 35.9786 23.0744 35.9526C22.975 35.9128 22.8759 35.8724 22.7812 35.8239C22.7147 35.7899 22.6514 35.7509 22.5874 35.7129C22.4992 35.6605 22.4128 35.6059 22.3297 35.5463C22.2682 35.5018 22.2089 35.4541 22.1503 35.4057C22.0723 35.3413 21.9974 35.2737 21.9255 35.2025C21.8709 35.1486 21.8181 35.0937 21.7672 35.0366C21.6999 34.9603 21.637 34.88 21.5763 34.7976C21.5311 34.7365 21.4855 34.6754 21.4443 34.6111C21.3876 34.5225 21.338 34.4289 21.2892 34.3345C21.2549 34.2684 21.2187 34.204 21.1887 34.1353C21.1804 34.1158 21.1754 34.0948 21.1674 34.075C21.1754 34.0721 21.183 34.0685 21.1905 34.0652C21.4328 33.9727 21.6768 33.8924 21.9222 33.8219L21.9222 33.8219ZM12.0374 16.6417C12.0374 13.2758 13.4267 9.97412 15.8495 7.58422C18.1725 5.2926 21.186 4.03639 24.3517 4.03639C24.4059 4.03639 24.4602 4.03675 24.5137 4.03747C31.2084 4.12785 36.6547 9.64879 36.6547 16.3451L36.6544 34.9172C36.6544 35.9215 35.8374 36.7381 34.8334 36.7381H32.5093C32.4761 36.69 32.4388 36.6456 32.4049 36.5982C32.3275 36.4905 32.2487 36.3838 32.1666 36.2793C32.107 36.2034 32.0455 36.1293 31.9841 36.0552C31.8984 35.9522 31.8124 35.8502 31.7231 35.7505C31.6565 35.6767 31.5879 35.6051 31.5195 35.5336C31.4299 35.4399 31.3402 35.3463 31.247 35.2563C31.1707 35.1825 31.0919 35.1117 31.0134 35.0405C30.9223 34.9577 30.8316 34.8749 30.7376 34.7954C30.6494 34.7209 30.5583 34.6508 30.4676 34.5795C30.3772 34.5087 30.2882 34.4364 30.195 34.3684C30.0916 34.2929 29.9849 34.2224 29.8787 34.1508C29.793 34.093 29.7088 34.033 29.6209 33.9776C29.4944 33.8981 29.3639 33.8244 29.2334 33.7503C29.1603 33.7087 29.0895 33.6642 29.0154 33.6244C28.8079 33.5135 28.5964 33.4086 28.3806 33.3117C27.7515 33.0298 27.1041 32.815 26.4508 32.6712V31.8205C31.0138 30.8304 34.2806 26.8173 34.2806 22.118V17.5617C34.2806 17.4615 34.2741 17.3628 34.2676 17.2645L34.2593 17.1203C34.2571 17.0668 34.2452 17.0158 34.2278 16.967C34.2242 16.9565 34.2174 16.9478 34.213 16.9377C34.1931 16.8925 34.1678 16.8513 34.136 16.8133C34.1306 16.8068 34.1288 16.7985 34.123 16.7924C34.1169 16.7859 34.1086 16.7837 34.1024 16.7776C34.0652 16.7407 34.0236 16.7099 33.9759 16.6857C33.9665 16.681 33.9585 16.6742 33.9491 16.6698C33.9459 16.6684 33.9433 16.6658 33.9397 16.6644C33.8931 16.6449 33.8447 16.6329 33.7958 16.6279C33.7886 16.6272 33.7821 16.629 33.7752 16.6286C33.7615 16.6275 33.7485 16.6297 33.7348 16.6301C33.687 16.6308 33.6411 16.6376 33.5956 16.651C33.5793 16.6557 33.5641 16.6601 33.5486 16.6666C33.4918 16.6893 33.4376 16.719 33.3906 16.7616C33.2688 16.8733 33.1404 16.9778 33.006 17.0754C32.9987 17.0805 32.9911 17.0848 32.9843 17.0899C32.9517 17.113 32.9167 17.1325 32.8834 17.155C32.7844 17.2222 32.6853 17.2894 32.5801 17.3491C32.5263 17.3795 32.4681 17.4044 32.4127 17.4326C32.3166 17.4821 32.2215 17.5327 32.1206 17.5761C32.0577 17.6032 31.9905 17.6246 31.9258 17.6491C31.8249 17.6875 31.7255 17.7279 31.6203 17.7605C31.6059 17.7648 31.5914 17.7692 31.5766 17.7735C31.4378 17.8151 31.295 17.8519 31.1467 17.8838C30.932 17.9297 30.7169 17.9622 30.5 17.9864C30.4714 17.9893 30.4436 17.9933 30.4147 17.9962C30.1916 18.0182 29.9657 18.0309 29.7333 18.0309C23.9835 18.0309 22.5266 10.2874 22.5126 10.2093C22.462 9.92841 22.1962 9.74151 21.9132 9.78959C18.0985 10.4544 15.9491 13.1914 14.9665 14.8688C14.9571 14.8847 14.9459 14.9028 14.9365 14.9183C14.9336 14.9234 14.9315 14.9277 14.9286 14.9331C14.7095 15.3123 14.5508 15.6341 14.4485 15.8586C14.4178 15.9262 14.4019 15.9992 14.4019 16.0733V22.1188C14.4019 26.8183 17.6688 30.8311 22.2317 31.8212V32.6719C21.5777 32.8157 20.9306 33.0308 20.3019 33.3125C20.0865 33.409 19.8753 33.5138 19.6682 33.6248C19.5908 33.666 19.5174 33.7123 19.4415 33.7557C19.3143 33.8283 19.1863 33.8999 19.0627 33.978C18.9734 34.034 18.8881 34.0951 18.8006 34.1537C18.6957 34.2245 18.5902 34.2943 18.4879 34.3691C18.395 34.4371 18.306 34.509 18.2157 34.5799C18.1246 34.6515 18.0331 34.722 17.9445 34.7968C17.8513 34.8756 17.7616 34.9577 17.6716 35.0394C17.5921 35.1117 17.5122 35.1833 17.4348 35.2581C17.3426 35.3474 17.2541 35.4396 17.1655 35.5321C17.0961 35.6051 17.0259 35.6774 16.9583 35.7526C16.8698 35.8509 16.7848 35.9522 16.7002 36.0538C16.6377 36.1289 16.5755 36.2041 16.5151 36.2811C16.4338 36.3853 16.3553 36.4912 16.2783 36.5985C16.244 36.6459 16.2071 36.6907 16.1735 36.7392H13.858C12.8537 36.7392 12.0371 35.9222 12.0371 34.9182L12.0374 16.6417Z"/>
  </mask>
  <path d="M13.8578 37.7747H15.5482C14.8122 39.1694 14.4015 40.7402 14.4015 42.3731V44.8711C14.4015 45.1574 14.6332 45.3895 14.9199 45.3895H33.7631C34.0494 45.3895 34.2815 45.1574 34.2815 44.8711V42.3731C34.2815 40.7402 33.8705 39.1699 33.1348 37.7747H34.8338C36.4092 37.7747 37.6912 36.4928 37.6912 34.9174L37.6908 16.3453C37.6908 9.08559 31.7856 3.09927 24.5271 3.00117C21.0198 2.95418 17.6823 4.31921 15.1208 6.84654C12.502 9.43023 11 13.0004 11 16.6416V34.9165C11.0004 36.4923 12.2822 37.7743 13.8577 37.7743L13.8578 37.7747ZM33.2442 44.3527H15.4375V42.3727C15.4375 40.5864 15.9845 38.8827 16.9461 37.4497C17.026 37.3311 17.1084 37.2144 17.193 37.1001C17.2314 37.0484 17.2704 36.9967 17.3098 36.9458C17.3995 36.8304 17.492 36.718 17.5867 36.6078C17.6286 36.559 17.6702 36.5098 17.7132 36.4617C17.8083 36.3554 17.907 36.2524 18.0071 36.1508C18.0549 36.1024 18.1019 36.0536 18.1503 36.0062C18.249 35.9104 18.3509 35.8186 18.454 35.7279C18.5086 35.6794 18.5624 35.6299 18.6184 35.5829C18.7186 35.4983 18.8223 35.4181 18.9265 35.3382C18.989 35.2901 19.0501 35.2405 19.1141 35.1939C19.2157 35.1198 19.3209 35.0504 19.4257 34.9806C19.4955 34.934 19.5641 34.8856 19.6354 34.8411C19.7388 34.7764 19.845 34.7171 19.951 34.6567C20.028 34.613 20.1031 34.5667 20.1816 34.5251C20.1928 34.5193 20.2044 34.5143 20.2156 34.5085C20.2206 34.5201 20.2279 34.5302 20.2326 34.5418C20.3096 34.7189 20.3974 34.8892 20.4954 35.0526C20.5124 35.0811 20.5297 35.109 20.5474 35.1372C20.6494 35.2995 20.7596 35.4549 20.8804 35.6017C20.897 35.6223 20.9151 35.6415 20.9324 35.6613C21.0611 35.8121 21.1967 35.9563 21.3435 36.0883C21.3478 36.0923 21.3522 36.0955 21.3565 36.0991C21.5029 36.23 21.6591 36.3493 21.821 36.4599C21.8395 36.4726 21.8568 36.4859 21.8756 36.4982C22.0347 36.6031 22.201 36.696 22.3723 36.7806C22.4012 36.795 22.4302 36.8095 22.4594 36.8232C22.6294 36.9024 22.8051 36.9707 22.9854 37.0282C23.0173 37.0383 23.0491 37.0473 23.0812 37.0571C23.2656 37.1113 23.4536 37.1558 23.6459 37.1858C23.6709 37.1898 23.6962 37.1919 23.7215 37.1952C23.925 37.2238 24.1314 37.2418 24.3411 37.2418C24.5508 37.2418 24.7572 37.2238 24.9607 37.1952C24.9857 37.1916 25.011 37.1898 25.0363 37.1858C25.2282 37.1554 25.4162 37.111 25.6006 37.0567C25.6324 37.0473 25.6646 37.0383 25.6964 37.0282C25.8764 36.9707 26.0521 36.9024 26.2224 36.8232C26.2517 36.8095 26.2802 36.795 26.3095 36.7806C26.4812 36.6963 26.6475 36.6034 26.8066 36.4982C26.825 36.4859 26.8424 36.4726 26.8604 36.4599C27.0228 36.3493 27.1793 36.2296 27.3257 36.0984C27.3297 36.0948 27.334 36.0915 27.338 36.0879C27.4851 35.9556 27.621 35.8117 27.7494 35.6606C27.7667 35.6404 27.7844 35.6212 27.8014 35.601C27.9218 35.4542 28.0321 35.2987 28.134 35.1364C28.1514 35.1082 28.1691 35.0804 28.1861 35.0518C28.2837 34.8881 28.3719 34.7182 28.4489 34.541C28.4536 34.5295 28.4608 34.5193 28.4659 34.5078C28.4771 34.5136 28.4887 34.5186 28.4999 34.5244C28.578 34.566 28.6524 34.6115 28.7287 34.6549C28.8353 34.7156 28.9427 34.7757 29.0468 34.8407C29.1166 34.8845 29.1838 34.9318 29.2522 34.9774C29.3588 35.0482 29.4655 35.1187 29.5689 35.1939C29.631 35.2391 29.6903 35.2872 29.7511 35.3338C29.857 35.4152 29.9629 35.4969 30.0648 35.5833C30.1191 35.6288 30.1708 35.6765 30.2239 35.7232C30.3287 35.8161 30.4329 35.9097 30.5337 36.0073C30.5804 36.0529 30.6252 36.0998 30.6711 36.1461C30.773 36.2495 30.8735 36.3543 30.9708 36.4628C31.0124 36.5091 31.0525 36.5568 31.093 36.6038C31.1888 36.7155 31.2828 36.8294 31.3735 36.9461C31.4122 36.996 31.4501 37.0466 31.4877 37.0976C31.5734 37.2126 31.6558 37.3297 31.7361 37.4493C32.6974 38.8827 33.2443 40.5862 33.2443 42.3723L33.2442 44.3527ZM21.9222 33.8219C21.9757 33.8064 22.0296 33.7923 22.0831 33.7778C22.334 33.7106 22.5859 33.6509 22.8383 33.6072C23.0866 33.5645 23.2685 33.3487 23.2685 33.0964V31.393C23.2685 31.1406 23.0866 30.9252 22.8383 30.8822C18.5504 30.1433 15.4386 26.457 15.4386 22.1171L15.4382 16.1862C15.9834 15.0301 17.8194 11.7994 21.6088 10.9079C21.9302 12.1941 22.9731 15.5677 25.4339 17.5501C26.5524 18.4514 27.9637 19.0652 29.7337 19.0652C30.0341 19.0652 30.3254 19.0468 30.6136 19.0146C30.7849 18.9965 30.9472 18.9643 31.1117 18.9354C31.1956 18.9202 31.2798 18.9134 31.3637 18.8953C31.3641 18.8953 31.3641 18.8949 31.3644 18.8949C31.3962 18.8881 31.4248 18.8783 31.4562 18.8714C31.5708 18.845 31.6836 18.8161 31.795 18.7843C31.8319 18.7738 31.8716 18.7662 31.9081 18.7554C32.0079 18.7247 32.1008 18.6849 32.1977 18.6498C32.3239 18.6039 32.4511 18.5605 32.5726 18.5074C32.6377 18.4788 32.6977 18.4441 32.7609 18.4134C32.894 18.3491 33.0263 18.284 33.1528 18.2106C33.1821 18.1933 33.2157 18.1813 33.245 18.1636V22.1174C33.245 26.4574 30.1328 30.1436 25.8453 30.8825C25.597 30.9252 25.4151 31.141 25.4151 31.3933V33.0967C25.4151 33.3491 25.597 33.5645 25.8453 33.6075C26.0973 33.6509 26.3485 33.7106 26.5991 33.7774C26.6537 33.7923 26.7082 33.8067 26.7632 33.8223C27.0072 33.8928 27.2505 33.9727 27.4916 34.0648C27.4996 34.0681 27.5082 34.0717 27.5162 34.075C27.5082 34.0945 27.5032 34.1158 27.4949 34.135C27.4649 34.2037 27.4287 34.2684 27.3944 34.3342C27.3456 34.4285 27.296 34.5221 27.2389 34.6107C27.1981 34.6747 27.1525 34.7354 27.1077 34.7965C27.047 34.8789 26.9837 34.9599 26.9157 35.0362C26.8655 35.0933 26.8127 35.1479 26.7585 35.201C26.6862 35.2726 26.6106 35.3406 26.5322 35.4056C26.4743 35.4537 26.4154 35.5007 26.3547 35.5448C26.2712 35.6052 26.184 35.6601 26.0951 35.7129C26.0319 35.7505 25.9693 35.7892 25.9035 35.8225C25.807 35.8724 25.7072 35.9132 25.6067 35.9533C25.542 35.9794 25.4784 36.0079 25.4115 36.03C25.2984 36.0672 25.1812 36.0936 25.0637 36.1189C25.0052 36.1316 24.9481 36.1496 24.8884 36.159C24.7095 36.188 24.5269 36.2049 24.3415 36.2049C24.156 36.2049 23.9734 36.188 23.7945 36.159C23.7341 36.1493 23.6766 36.1312 23.6177 36.1182C23.5009 36.0929 23.3845 36.0668 23.2717 36.03C23.2045 36.0079 23.1398 35.9786 23.0744 35.9526C22.975 35.9128 22.8759 35.8724 22.7812 35.8239C22.7147 35.7899 22.6514 35.7509 22.5874 35.7129C22.4992 35.6605 22.4128 35.6059 22.3297 35.5463C22.2682 35.5018 22.2089 35.4541 22.1503 35.4057C22.0723 35.3413 21.9974 35.2737 21.9255 35.2025C21.8709 35.1486 21.8181 35.0937 21.7672 35.0366C21.6999 34.9603 21.637 34.88 21.5763 34.7976C21.5311 34.7365 21.4855 34.6754 21.4443 34.6111C21.3876 34.5225 21.338 34.4289 21.2892 34.3345C21.2549 34.2684 21.2187 34.204 21.1887 34.1353C21.1804 34.1158 21.1754 34.0948 21.1674 34.075C21.1754 34.0721 21.183 34.0685 21.1905 34.0652C21.4328 33.9727 21.6768 33.8924 21.9222 33.8219L21.9222 33.8219ZM12.0374 16.6417C12.0374 13.2758 13.4267 9.97412 15.8495 7.58422C18.1725 5.2926 21.186 4.03639 24.3517 4.03639C24.4059 4.03639 24.4602 4.03675 24.5137 4.03747C31.2084 4.12785 36.6547 9.64879 36.6547 16.3451L36.6544 34.9172C36.6544 35.9215 35.8374 36.7381 34.8334 36.7381H32.5093C32.4761 36.69 32.4388 36.6456 32.4049 36.5982C32.3275 36.4905 32.2487 36.3838 32.1666 36.2793C32.107 36.2034 32.0455 36.1293 31.9841 36.0552C31.8984 35.9522 31.8124 35.8502 31.7231 35.7505C31.6565 35.6767 31.5879 35.6051 31.5195 35.5336C31.4299 35.4399 31.3402 35.3463 31.247 35.2563C31.1707 35.1825 31.0919 35.1117 31.0134 35.0405C30.9223 34.9577 30.8316 34.8749 30.7376 34.7954C30.6494 34.7209 30.5583 34.6508 30.4676 34.5795C30.3772 34.5087 30.2882 34.4364 30.195 34.3684C30.0916 34.2929 29.9849 34.2224 29.8787 34.1508C29.793 34.093 29.7088 34.033 29.6209 33.9776C29.4944 33.8981 29.3639 33.8244 29.2334 33.7503C29.1603 33.7087 29.0895 33.6642 29.0154 33.6244C28.8079 33.5135 28.5964 33.4086 28.3806 33.3117C27.7515 33.0298 27.1041 32.815 26.4508 32.6712V31.8205C31.0138 30.8304 34.2806 26.8173 34.2806 22.118V17.5617C34.2806 17.4615 34.2741 17.3628 34.2676 17.2645L34.2593 17.1203C34.2571 17.0668 34.2452 17.0158 34.2278 16.967C34.2242 16.9565 34.2174 16.9478 34.213 16.9377C34.1931 16.8925 34.1678 16.8513 34.136 16.8133C34.1306 16.8068 34.1288 16.7985 34.123 16.7924C34.1169 16.7859 34.1086 16.7837 34.1024 16.7776C34.0652 16.7407 34.0236 16.7099 33.9759 16.6857C33.9665 16.681 33.9585 16.6742 33.9491 16.6698C33.9459 16.6684 33.9433 16.6658 33.9397 16.6644C33.8931 16.6449 33.8447 16.6329 33.7958 16.6279C33.7886 16.6272 33.7821 16.629 33.7752 16.6286C33.7615 16.6275 33.7485 16.6297 33.7348 16.6301C33.687 16.6308 33.6411 16.6376 33.5956 16.651C33.5793 16.6557 33.5641 16.6601 33.5486 16.6666C33.4918 16.6893 33.4376 16.719 33.3906 16.7616C33.2688 16.8733 33.1404 16.9778 33.006 17.0754C32.9987 17.0805 32.9911 17.0848 32.9843 17.0899C32.9517 17.113 32.9167 17.1325 32.8834 17.155C32.7844 17.2222 32.6853 17.2894 32.5801 17.3491C32.5263 17.3795 32.4681 17.4044 32.4127 17.4326C32.3166 17.4821 32.2215 17.5327 32.1206 17.5761C32.0577 17.6032 31.9905 17.6246 31.9258 17.6491C31.8249 17.6875 31.7255 17.7279 31.6203 17.7605C31.6059 17.7648 31.5914 17.7692 31.5766 17.7735C31.4378 17.8151 31.295 17.8519 31.1467 17.8838C30.932 17.9297 30.7169 17.9622 30.5 17.9864C30.4714 17.9893 30.4436 17.9933 30.4147 17.9962C30.1916 18.0182 29.9657 18.0309 29.7333 18.0309C23.9835 18.0309 22.5266 10.2874 22.5126 10.2093C22.462 9.92841 22.1962 9.74151 21.9132 9.78959C18.0985 10.4544 15.9491 13.1914 14.9665 14.8688C14.9571 14.8847 14.9459 14.9028 14.9365 14.9183C14.9336 14.9234 14.9315 14.9277 14.9286 14.9331C14.7095 15.3123 14.5508 15.6341 14.4485 15.8586C14.4178 15.9262 14.4019 15.9992 14.4019 16.0733V22.1188C14.4019 26.8183 17.6688 30.8311 22.2317 31.8212V32.6719C21.5777 32.8157 20.9306 33.0308 20.3019 33.3125C20.0865 33.409 19.8753 33.5138 19.6682 33.6248C19.5908 33.666 19.5174 33.7123 19.4415 33.7557C19.3143 33.8283 19.1863 33.8999 19.0627 33.978C18.9734 34.034 18.8881 34.0951 18.8006 34.1537C18.6957 34.2245 18.5902 34.2943 18.4879 34.3691C18.395 34.4371 18.306 34.509 18.2157 34.5799C18.1246 34.6515 18.0331 34.722 17.9445 34.7968C17.8513 34.8756 17.7616 34.9577 17.6716 35.0394C17.5921 35.1117 17.5122 35.1833 17.4348 35.2581C17.3426 35.3474 17.2541 35.4396 17.1655 35.5321C17.0961 35.6051 17.0259 35.6774 16.9583 35.7526C16.8698 35.8509 16.7848 35.9522 16.7002 36.0538C16.6377 36.1289 16.5755 36.2041 16.5151 36.2811C16.4338 36.3853 16.3553 36.4912 16.2783 36.5985C16.244 36.6459 16.2071 36.6907 16.1735 36.7392H13.858C12.8537 36.7392 12.0371 35.9222 12.0371 34.9182L12.0374 16.6417Z" fill="white"/>
  <path d="M13.8578 37.7747H15.5482C14.8122 39.1694 14.4015 40.7402 14.4015 42.3731V44.8711C14.4015 45.1574 14.6332 45.3895 14.9199 45.3895H33.7631C34.0494 45.3895 34.2815 45.1574 34.2815 44.8711V42.3731C34.2815 40.7402 33.8705 39.1699 33.1348 37.7747H34.8338C36.4092 37.7747 37.6912 36.4928 37.6912 34.9174L37.6908 16.3453C37.6908 9.08559 31.7856 3.09927 24.5271 3.00117C21.0198 2.95418 17.6823 4.31921 15.1208 6.84654C12.502 9.43023 11 13.0004 11 16.6416V34.9165C11.0004 36.4923 12.2822 37.7743 13.8577 37.7743L13.8578 37.7747ZM33.2442 44.3527H15.4375V42.3727C15.4375 40.5864 15.9845 38.8827 16.9461 37.4497C17.026 37.3311 17.1084 37.2144 17.193 37.1001C17.2314 37.0484 17.2704 36.9967 17.3098 36.9458C17.3995 36.8304 17.492 36.718 17.5867 36.6078C17.6286 36.559 17.6702 36.5098 17.7132 36.4617C17.8083 36.3554 17.907 36.2524 18.0071 36.1508C18.0549 36.1024 18.1019 36.0536 18.1503 36.0062C18.249 35.9104 18.3509 35.8186 18.454 35.7279C18.5086 35.6794 18.5624 35.6299 18.6184 35.5829C18.7186 35.4983 18.8223 35.4181 18.9265 35.3382C18.989 35.2901 19.0501 35.2405 19.1141 35.1939C19.2157 35.1198 19.3209 35.0504 19.4257 34.9806C19.4955 34.934 19.5641 34.8856 19.6354 34.8411C19.7388 34.7764 19.845 34.7171 19.951 34.6567C20.028 34.613 20.1031 34.5667 20.1816 34.5251C20.1928 34.5193 20.2044 34.5143 20.2156 34.5085C20.2206 34.5201 20.2279 34.5302 20.2326 34.5418C20.3096 34.7189 20.3974 34.8892 20.4954 35.0526C20.5124 35.0811 20.5297 35.109 20.5474 35.1372C20.6494 35.2995 20.7596 35.4549 20.8804 35.6017C20.897 35.6223 20.9151 35.6415 20.9324 35.6613C21.0611 35.8121 21.1967 35.9563 21.3435 36.0883C21.3478 36.0923 21.3522 36.0955 21.3565 36.0991C21.5029 36.23 21.6591 36.3493 21.821 36.4599C21.8395 36.4726 21.8568 36.4859 21.8756 36.4982C22.0347 36.6031 22.201 36.696 22.3723 36.7806C22.4012 36.795 22.4302 36.8095 22.4594 36.8232C22.6294 36.9024 22.8051 36.9707 22.9854 37.0282C23.0173 37.0383 23.0491 37.0473 23.0812 37.0571C23.2656 37.1113 23.4536 37.1558 23.6459 37.1858C23.6709 37.1898 23.6962 37.1919 23.7215 37.1952C23.925 37.2238 24.1314 37.2418 24.3411 37.2418C24.5508 37.2418 24.7572 37.2238 24.9607 37.1952C24.9857 37.1916 25.011 37.1898 25.0363 37.1858C25.2282 37.1554 25.4162 37.111 25.6006 37.0567C25.6324 37.0473 25.6646 37.0383 25.6964 37.0282C25.8764 36.9707 26.0521 36.9024 26.2224 36.8232C26.2517 36.8095 26.2802 36.795 26.3095 36.7806C26.4812 36.6963 26.6475 36.6034 26.8066 36.4982C26.825 36.4859 26.8424 36.4726 26.8604 36.4599C27.0228 36.3493 27.1793 36.2296 27.3257 36.0984C27.3297 36.0948 27.334 36.0915 27.338 36.0879C27.4851 35.9556 27.621 35.8117 27.7494 35.6606C27.7667 35.6404 27.7844 35.6212 27.8014 35.601C27.9218 35.4542 28.0321 35.2987 28.134 35.1364C28.1514 35.1082 28.1691 35.0804 28.1861 35.0518C28.2837 34.8881 28.3719 34.7182 28.4489 34.541C28.4536 34.5295 28.4608 34.5193 28.4659 34.5078C28.4771 34.5136 28.4887 34.5186 28.4999 34.5244C28.578 34.566 28.6524 34.6115 28.7287 34.6549C28.8353 34.7156 28.9427 34.7757 29.0468 34.8407C29.1166 34.8845 29.1838 34.9318 29.2522 34.9774C29.3588 35.0482 29.4655 35.1187 29.5689 35.1939C29.631 35.2391 29.6903 35.2872 29.7511 35.3338C29.857 35.4152 29.9629 35.4969 30.0648 35.5833C30.1191 35.6288 30.1708 35.6765 30.2239 35.7232C30.3287 35.8161 30.4329 35.9097 30.5337 36.0073C30.5804 36.0529 30.6252 36.0998 30.6711 36.1461C30.773 36.2495 30.8735 36.3543 30.9708 36.4628C31.0124 36.5091 31.0525 36.5568 31.093 36.6038C31.1888 36.7155 31.2828 36.8294 31.3735 36.9461C31.4122 36.996 31.4501 37.0466 31.4877 37.0976C31.5734 37.2126 31.6558 37.3297 31.7361 37.4493C32.6974 38.8827 33.2443 40.5862 33.2443 42.3723L33.2442 44.3527ZM21.9222 33.8219C21.9757 33.8064 22.0296 33.7923 22.0831 33.7778C22.334 33.7106 22.5859 33.6509 22.8383 33.6072C23.0866 33.5645 23.2685 33.3487 23.2685 33.0964V31.393C23.2685 31.1406 23.0866 30.9252 22.8383 30.8822C18.5504 30.1433 15.4386 26.457 15.4386 22.1171L15.4382 16.1862C15.9834 15.0301 17.8194 11.7994 21.6088 10.9079C21.9302 12.1941 22.9731 15.5677 25.4339 17.5501C26.5524 18.4514 27.9637 19.0652 29.7337 19.0652C30.0341 19.0652 30.3254 19.0468 30.6136 19.0146C30.7849 18.9965 30.9472 18.9643 31.1117 18.9354C31.1956 18.9202 31.2798 18.9134 31.3637 18.8953C31.3641 18.8953 31.3641 18.8949 31.3644 18.8949C31.3962 18.8881 31.4248 18.8783 31.4562 18.8714C31.5708 18.845 31.6836 18.8161 31.795 18.7843C31.8319 18.7738 31.8716 18.7662 31.9081 18.7554C32.0079 18.7247 32.1008 18.6849 32.1977 18.6498C32.3239 18.6039 32.4511 18.5605 32.5726 18.5074C32.6377 18.4788 32.6977 18.4441 32.7609 18.4134C32.894 18.3491 33.0263 18.284 33.1528 18.2106C33.1821 18.1933 33.2157 18.1813 33.245 18.1636V22.1174C33.245 26.4574 30.1328 30.1436 25.8453 30.8825C25.597 30.9252 25.4151 31.141 25.4151 31.3933V33.0967C25.4151 33.3491 25.597 33.5645 25.8453 33.6075C26.0973 33.6509 26.3485 33.7106 26.5991 33.7774C26.6537 33.7923 26.7082 33.8067 26.7632 33.8223C27.0072 33.8928 27.2505 33.9727 27.4916 34.0648C27.4996 34.0681 27.5082 34.0717 27.5162 34.075C27.5082 34.0945 27.5032 34.1158 27.4949 34.135C27.4649 34.2037 27.4287 34.2684 27.3944 34.3342C27.3456 34.4285 27.296 34.5221 27.2389 34.6107C27.1981 34.6747 27.1525 34.7354 27.1077 34.7965C27.047 34.8789 26.9837 34.9599 26.9157 35.0362C26.8655 35.0933 26.8127 35.1479 26.7585 35.201C26.6862 35.2726 26.6106 35.3406 26.5322 35.4056C26.4743 35.4537 26.4154 35.5007 26.3547 35.5448C26.2712 35.6052 26.184 35.6601 26.0951 35.7129C26.0319 35.7505 25.9693 35.7892 25.9035 35.8225C25.807 35.8724 25.7072 35.9132 25.6067 35.9533C25.542 35.9794 25.4784 36.0079 25.4115 36.03C25.2984 36.0672 25.1812 36.0936 25.0637 36.1189C25.0052 36.1316 24.9481 36.1496 24.8884 36.159C24.7095 36.188 24.5269 36.2049 24.3415 36.2049C24.156 36.2049 23.9734 36.188 23.7945 36.159C23.7341 36.1493 23.6766 36.1312 23.6177 36.1182C23.5009 36.0929 23.3845 36.0668 23.2717 36.03C23.2045 36.0079 23.1398 35.9786 23.0744 35.9526C22.975 35.9128 22.8759 35.8724 22.7812 35.8239C22.7147 35.7899 22.6514 35.7509 22.5874 35.7129C22.4992 35.6605 22.4128 35.6059 22.3297 35.5463C22.2682 35.5018 22.2089 35.4541 22.1503 35.4057C22.0723 35.3413 21.9974 35.2737 21.9255 35.2025C21.8709 35.1486 21.8181 35.0937 21.7672 35.0366C21.6999 34.9603 21.637 34.88 21.5763 34.7976C21.5311 34.7365 21.4855 34.6754 21.4443 34.6111C21.3876 34.5225 21.338 34.4289 21.2892 34.3345C21.2549 34.2684 21.2187 34.204 21.1887 34.1353C21.1804 34.1158 21.1754 34.0948 21.1674 34.075C21.1754 34.0721 21.183 34.0685 21.1905 34.0652C21.4328 33.9727 21.6768 33.8924 21.9222 33.8219L21.9222 33.8219ZM12.0374 16.6417C12.0374 13.2758 13.4267 9.97412 15.8495 7.58422C18.1725 5.2926 21.186 4.03639 24.3517 4.03639C24.4059 4.03639 24.4602 4.03675 24.5137 4.03747C31.2084 4.12785 36.6547 9.64879 36.6547 16.3451L36.6544 34.9172C36.6544 35.9215 35.8374 36.7381 34.8334 36.7381H32.5093C32.4761 36.69 32.4388 36.6456 32.4049 36.5982C32.3275 36.4905 32.2487 36.3838 32.1666 36.2793C32.107 36.2034 32.0455 36.1293 31.9841 36.0552C31.8984 35.9522 31.8124 35.8502 31.7231 35.7505C31.6565 35.6767 31.5879 35.6051 31.5195 35.5336C31.4299 35.4399 31.3402 35.3463 31.247 35.2563C31.1707 35.1825 31.0919 35.1117 31.0134 35.0405C30.9223 34.9577 30.8316 34.8749 30.7376 34.7954C30.6494 34.7209 30.5583 34.6508 30.4676 34.5795C30.3772 34.5087 30.2882 34.4364 30.195 34.3684C30.0916 34.2929 29.9849 34.2224 29.8787 34.1508C29.793 34.093 29.7088 34.033 29.6209 33.9776C29.4944 33.8981 29.3639 33.8244 29.2334 33.7503C29.1603 33.7087 29.0895 33.6642 29.0154 33.6244C28.8079 33.5135 28.5964 33.4086 28.3806 33.3117C27.7515 33.0298 27.1041 32.815 26.4508 32.6712V31.8205C31.0138 30.8304 34.2806 26.8173 34.2806 22.118V17.5617C34.2806 17.4615 34.2741 17.3628 34.2676 17.2645L34.2593 17.1203C34.2571 17.0668 34.2452 17.0158 34.2278 16.967C34.2242 16.9565 34.2174 16.9478 34.213 16.9377C34.1931 16.8925 34.1678 16.8513 34.136 16.8133C34.1306 16.8068 34.1288 16.7985 34.123 16.7924C34.1169 16.7859 34.1086 16.7837 34.1024 16.7776C34.0652 16.7407 34.0236 16.7099 33.9759 16.6857C33.9665 16.681 33.9585 16.6742 33.9491 16.6698C33.9459 16.6684 33.9433 16.6658 33.9397 16.6644C33.8931 16.6449 33.8447 16.6329 33.7958 16.6279C33.7886 16.6272 33.7821 16.629 33.7752 16.6286C33.7615 16.6275 33.7485 16.6297 33.7348 16.6301C33.687 16.6308 33.6411 16.6376 33.5956 16.651C33.5793 16.6557 33.5641 16.6601 33.5486 16.6666C33.4918 16.6893 33.4376 16.719 33.3906 16.7616C33.2688 16.8733 33.1404 16.9778 33.006 17.0754C32.9987 17.0805 32.9911 17.0848 32.9843 17.0899C32.9517 17.113 32.9167 17.1325 32.8834 17.155C32.7844 17.2222 32.6853 17.2894 32.5801 17.3491C32.5263 17.3795 32.4681 17.4044 32.4127 17.4326C32.3166 17.4821 32.2215 17.5327 32.1206 17.5761C32.0577 17.6032 31.9905 17.6246 31.9258 17.6491C31.8249 17.6875 31.7255 17.7279 31.6203 17.7605C31.6059 17.7648 31.5914 17.7692 31.5766 17.7735C31.4378 17.8151 31.295 17.8519 31.1467 17.8838C30.932 17.9297 30.7169 17.9622 30.5 17.9864C30.4714 17.9893 30.4436 17.9933 30.4147 17.9962C30.1916 18.0182 29.9657 18.0309 29.7333 18.0309C23.9835 18.0309 22.5266 10.2874 22.5126 10.2093C22.462 9.92841 22.1962 9.74151 21.9132 9.78959C18.0985 10.4544 15.9491 13.1914 14.9665 14.8688C14.9571 14.8847 14.9459 14.9028 14.9365 14.9183C14.9336 14.9234 14.9315 14.9277 14.9286 14.9331C14.7095 15.3123 14.5508 15.6341 14.4485 15.8586C14.4178 15.9262 14.4019 15.9992 14.4019 16.0733V22.1188C14.4019 26.8183 17.6688 30.8311 22.2317 31.8212V32.6719C21.5777 32.8157 20.9306 33.0308 20.3019 33.3125C20.0865 33.409 19.8753 33.5138 19.6682 33.6248C19.5908 33.666 19.5174 33.7123 19.4415 33.7557C19.3143 33.8283 19.1863 33.8999 19.0627 33.978C18.9734 34.034 18.8881 34.0951 18.8006 34.1537C18.6957 34.2245 18.5902 34.2943 18.4879 34.3691C18.395 34.4371 18.306 34.509 18.2157 34.5799C18.1246 34.6515 18.0331 34.722 17.9445 34.7968C17.8513 34.8756 17.7616 34.9577 17.6716 35.0394C17.5921 35.1117 17.5122 35.1833 17.4348 35.2581C17.3426 35.3474 17.2541 35.4396 17.1655 35.5321C17.0961 35.6051 17.0259 35.6774 16.9583 35.7526C16.8698 35.8509 16.7848 35.9522 16.7002 36.0538C16.6377 36.1289 16.5755 36.2041 16.5151 36.2811C16.4338 36.3853 16.3553 36.4912 16.2783 36.5985C16.244 36.6459 16.2071 36.6907 16.1735 36.7392H13.858C12.8537 36.7392 12.0371 35.9222 12.0371 34.9182L12.0374 16.6417Z" stroke="white" stroke-width="0.4" mask="url(#path-1-outside-1_2402_42435)"/>
  </svg>
  