<svg width="48" height="48" viewBox="0 0 48 48" fill="none" xmlns="http://www.w3.org/2000/svg">
  <path d="M23.1628 27.066H24.4867C24.8684 27.066 25.2289 26.8918 25.4653 26.5924L26.1967 25.6681L24.8712 24.9094C24.6008 24.7543 24.2654 24.7629 24.0035 24.932L23.9543 24.9631C23.8751 25.014 23.7737 25.014 23.6946 24.9631L23.6459 24.932C23.3834 24.7629 23.049 24.7543 22.7776 24.9094L21.4521 25.6681L22.1832 26.5924C22.4206 26.8921 22.7811 27.066 23.1628 27.066H23.1628ZM23.1583 25.5231L23.6278 25.7386C23.7527 25.7958 23.8961 25.7958 24.021 25.7386L24.4904 25.5231C24.4904 25.5231 25.2034 25.6703 25.7164 25.7065C25.6655 25.7246 24.8588 26.0126 24.555 26.2659H23.0945C22.7906 26.0129 21.9833 25.725 21.9324 25.7065C22.4454 25.6703 23.1583 25.5231 23.1583 25.5231Z" fill="white" />
  <path d="M25.6247 24.68C25.7509 24.68 25.8538 24.5774 25.8538 24.4508C25.8538 24.3247 25.7512 24.2217 25.6247 24.2217C25.4985 24.2217 25.3955 24.3243 25.3955 24.4508C25.3955 24.577 25.4982 24.68 25.6247 24.68Z" fill="white" />
  <mask id="path-3-outside-1_2402_42430" maskUnits="userSpaceOnUse" x="7" y="2" width="33" height="43" fill="black">
    <rect fill="white" x="7" y="2" width="33" height="43" />
    <path d="M38.6007 37.3107C38.5111 36.558 38.2708 35.847 37.8881 35.1954C37.6281 33.5658 36.7079 30.3332 36.0338 27.9653C35.9461 27.6576 35.8583 27.3496 35.7712 27.0416C35.6339 26.5566 35.4947 26.0715 35.3714 25.5827C35.2347 25.0407 35.257 24.4635 35.2519 23.9079C35.2496 23.6587 35.2105 23.4044 35.2706 23.1603C35.3348 22.8988 35.4143 22.6413 35.4801 22.3803C35.6915 21.5406 35.8253 20.6801 35.9181 19.8201C36.0328 18.7562 36.0786 17.6828 36.0341 16.6133C35.9896 15.5421 35.8574 14.464 35.5506 13.4342C35.0643 11.8001 34.0272 9.93433 32.9694 8.79133C32.9385 8.75796 32.8994 8.71632 32.853 8.66706C32.5091 8.30121 31.7934 7.53968 30.9237 6.43355C30.6974 6.14558 30.5842 5.98634 30.5016 5.87C30.4069 5.73682 30.3446 5.64877 30.2066 5.50321C29.3312 4.57893 28.2232 3.87745 26.9143 3.41877C24.7399 2.65434 22.8122 3.1219 21.7737 3.37331C18.7866 4.09737 16.9571 5.72383 15.9479 6.96089C14.4209 8.83336 13.878 10.831 13.6921 12.1847C13.5821 12.5757 13.3465 13.5597 13.3297 13.6354C13.0192 14.2088 12.4893 14.9309 12.0208 15.5692C11.4973 16.2821 11.1715 16.7332 11.0724 17.0078C10.635 18.2198 10.8041 19.4222 11.0272 20.4387C11.2475 21.4443 11.9995 23.5222 12.4969 24.8971C12.7026 25.4654 12.9152 26.0531 12.9359 26.1475C13.2321 27.7727 12.167 31.3583 11.333 33.3376C9.92935 34.2203 9.01492 35.6626 8.81939 37.3113L8 44.2052L30.2187 44.2045C30.2368 44.2058 30.2543 44.2065 30.2718 44.2065C30.289 44.2065 30.3061 44.2058 30.3226 44.2045H39.4197L38.6007 37.3107ZM13.5292 26.0386C13.5082 25.9232 13.3916 25.5961 13.0642 24.6912C12.5722 23.3311 11.8284 21.2755 11.6164 20.3087C11.4015 19.3298 11.2556 18.2767 11.6396 17.2122C11.7143 17.0056 12.1173 16.4567 12.507 15.9258C12.9618 15.306 13.4656 14.6137 13.7991 14.0232C15.1026 13.4863 19.7778 11.4543 19.8614 9.68293C19.8697 9.50907 19.8363 9.24938 19.6599 9.15943C19.5213 9.08855 19.3455 9.13305 19.3042 9.29452C19.2775 9.39877 19.3007 9.51098 19.3179 9.61459C19.3334 9.70932 19.3013 9.81643 19.2657 9.90415C19.2238 10.0071 19.165 10.1025 19.0995 10.1921C19.0197 10.3015 18.9291 10.4025 18.8341 10.4989C18.7225 10.612 18.6037 10.7182 18.4816 10.8199C18.3433 10.9353 18.2 11.0449 18.0541 11.1504C17.8936 11.2668 17.7296 11.3783 17.5637 11.4864C17.3854 11.6024 17.2045 11.7143 17.0221 11.823C16.8304 11.9371 16.6365 12.048 16.441 12.1558C16.2398 12.2667 16.037 12.3748 15.8327 12.4803C15.6261 12.5868 15.4182 12.6907 15.209 12.7921C15.0012 12.8929 14.7923 12.9908 14.5822 13.0865C14.3938 13.1723 14.204 13.2555 14.0136 13.3372C14.162 12.6821 14.3025 12.0252 14.4535 11.3704C14.7923 9.90036 15.4605 8.5126 16.4143 7.34259C17.3647 6.17738 19.0907 4.64471 21.9173 3.95942C22.8924 3.72326 24.7077 3.28335 26.7136 3.98834C27.9313 4.4149 28.9589 5.06429 29.7675 5.91834C29.8762 6.03341 29.9178 6.09189 30.0087 6.21998C30.0948 6.3414 30.2131 6.50763 30.4483 6.80704C31.3342 7.93417 32.0623 8.70872 32.4123 9.08091C32.4574 9.12922 32.4956 9.16958 32.5255 9.20201C33.5257 10.283 34.5085 12.0534 34.971 13.6071C35.9954 17.0491 35.128 21.6535 34.7135 22.8523C34.5975 23.1873 34.6586 24.6614 34.69 25.2797L34.6926 25.3061C34.7339 25.6007 34.9945 26.5241 35.4522 28.1308C35.9833 29.9963 36.6686 32.4024 37.0564 34.1133C37.0523 34.1092 37.0482 34.1054 37.044 34.1013C36.9992 34.0564 36.9541 34.0123 36.908 33.969C36.8994 33.9611 36.8908 33.9535 36.8822 33.9455C36.8425 33.909 36.8025 33.8727 36.7618 33.8374C36.7494 33.8266 36.7373 33.8158 36.7249 33.8053C36.6763 33.764 36.6273 33.723 36.5774 33.6833C36.5727 33.6795 36.5679 33.676 36.5631 33.6722C36.517 33.6356 36.4703 33.6003 36.4233 33.5654C36.4102 33.5558 36.3972 33.546 36.3842 33.5364C36.333 33.4992 36.2812 33.4627 36.2265 33.4258C36.1731 33.3899 36.1188 33.3549 36.0641 33.3209C36.0507 33.3127 36.0371 33.3044 36.0237 33.2961C35.9748 33.2663 35.9258 33.237 35.8759 33.2087C35.8689 33.2049 35.8623 33.2008 35.8556 33.197C35.7996 33.1655 35.7434 33.1353 35.6862 33.1057C35.6725 33.0988 35.6592 33.0921 35.6455 33.0851C35.5969 33.0606 35.5479 33.0365 35.4986 33.0133C35.4878 33.0082 35.4773 33.0031 35.4665 32.998C35.4084 32.9713 35.3499 32.9456 35.2908 32.9204C35.2777 32.915 35.2647 32.91 35.2517 32.9045C35.2021 32.8842 35.1522 32.8645 35.102 32.8457C35.0883 32.8407 35.0746 32.8353 35.061 32.8302C35.0009 32.8079 34.9402 32.7869 34.8791 32.7666C34.8677 32.7628 34.8566 32.7596 34.8451 32.7558C34.7933 32.7389 34.7409 32.7231 34.6884 32.7081C34.6729 32.7037 34.6573 32.6989 34.6414 32.6948C34.5791 32.6773 34.5168 32.6608 34.4539 32.6455C34.4459 32.6436 34.4383 32.642 34.4303 32.6401C34.3741 32.6267 34.3175 32.6144 34.2606 32.6029C34.2438 32.5994 34.2266 32.5959 34.2098 32.5927C34.1456 32.5803 34.081 32.5683 34.0162 32.5581C33.855 32.5327 30.8848 32.5292 30.873 32.5292C30.1715 32.5292 29.6623 32.2628 29.3146 31.7117C29.3073 31.7002 29.2997 31.6884 29.2907 31.6732C28.9357 31.0823 28.7688 30.1993 28.7943 29.0474C28.7949 29.0153 28.7955 28.9838 28.7968 28.9473C28.7981 28.8961 28.8 28.8452 28.8028 28.7906C28.8048 28.74 28.8073 28.6898 28.8105 28.638C28.8734 27.5647 29.0765 26.6111 29.1483 26.2983C29.1483 26.2983 30.3101 24.9179 30.4169 24.7863C30.4897 24.6967 30.5396 24.5912 30.5634 24.4783L30.6985 23.834C30.7135 23.767 30.7281 23.7005 30.7427 23.6344L30.7821 23.4555C30.7977 23.3849 30.8126 23.3147 30.8276 23.2444L30.8358 23.2063C30.8606 23.0887 30.8841 22.9746 30.9064 22.8636C31.2859 22.8357 31.6797 22.5982 32.0242 22.1803C32.7229 21.3357 33.0102 20.0119 32.6784 19.1671C32.5322 18.7942 32.2734 18.5428 31.9502 18.4589C31.7474 18.4065 31.5309 18.422 31.3145 18.5012C31.3062 18.2622 31.2929 18.02 31.2738 17.7714C31.1724 16.4523 30.8848 15.3023 30.3943 14.2563C29.7313 12.8447 28.6261 12.5075 27.4561 12.1502C26.8573 11.9675 26.2381 11.7784 25.6205 11.4335C25.4276 11.3257 25.0681 11.1255 24.7503 11.6026C23.9331 12.8276 21.4093 14.6984 19.3815 16.2016C16.8082 18.109 15.9103 18.8219 15.9386 19.3295C15.9469 19.4722 15.9564 19.6143 15.9688 19.7735C15.9694 19.7821 15.9701 19.7904 15.971 19.7986C15.9863 19.989 16.0044 20.1807 16.0273 20.3841C16.0349 20.4541 16.0425 20.5243 16.0508 20.5894L16.053 20.6092C16.0896 20.913 16.1335 21.2264 16.1872 21.5674C16.2129 21.7295 16.2393 21.8917 16.2669 22.0538C16.2873 22.1717 16.3073 22.289 16.3283 22.4062C16.3283 22.4062 16.3753 22.6656 16.3779 22.6783C16.3807 22.6917 16.3833 22.7057 16.3865 22.7241L16.458 23.1046C16.5435 23.56 16.6411 24.0791 16.71 24.4551C16.7695 24.7793 16.91 25.1322 17.0848 25.3972C17.1337 25.4726 17.1871 25.5428 17.2447 25.6064L17.3537 25.7211C17.5546 25.9293 17.7281 26.1092 17.901 26.277C18.0084 26.3816 18.1003 26.4671 18.1893 26.5459C18.4929 26.8161 18.8034 27.0469 19.1804 27.2818L19.1832 28.4591C19.1826 28.4909 19.1836 28.5249 19.1867 28.5653C19.188 28.584 19.1896 28.6028 19.1912 28.6212C19.194 28.6539 19.1966 28.6844 19.1966 28.7061C19.1966 28.7544 19.1966 28.8017 19.1953 28.852C19.1797 29.7041 19.0119 30.4527 18.682 31.1398C18.6715 31.1621 18.6617 31.1853 18.6521 31.2097C18.5838 31.389 18.4525 31.5235 18.2923 31.5784C18.2802 31.5826 18.2678 31.5867 18.2551 31.5896L18.2364 31.594C18.2205 31.5978 18.2036 31.6017 18.1766 31.6074C18.1445 31.615 18.1111 31.6229 18.0752 31.6309L17.7936 31.6951C17.7319 31.7088 17.6681 31.7231 17.6058 31.7371L17.362 31.7911C17.3286 31.7987 17.2949 31.806 17.2606 31.8133L17.1156 31.8448C16.8534 31.9023 16.5534 31.9662 16.2282 32.0336L14.1549 32.4169L14.1619 32.4309C13.9026 32.476 13.6489 32.5183 13.4035 32.5574C12.99 32.6229 12.5832 32.7357 12.1945 32.8937C12.1811 32.8991 12.1678 32.9045 12.1547 32.9099C12.9405 30.8582 13.8343 27.7083 13.5295 26.038L13.5292 26.0386ZM19.7921 28.5696C19.7908 28.554 19.7896 28.5381 19.7883 28.5216C19.787 28.5041 19.7858 28.4863 19.7864 28.4698V28.4653L19.7826 26.9406L19.6364 26.8532C19.2197 26.6037 18.9069 26.3771 18.5897 26.0948C18.5071 26.0217 18.4219 25.9419 18.3211 25.844C18.1552 25.6829 17.9848 25.5062 17.7875 25.3018L17.709 25.2198C17.667 25.1756 17.6273 25.1247 17.5894 25.0666C17.4598 24.8698 17.3472 24.5869 17.3034 24.346C17.2344 23.969 17.1365 23.4488 17.051 22.9923L16.9795 22.6121C16.976 22.5921 16.9722 22.5721 16.968 22.5527L16.9223 22.2994C16.9016 22.1833 16.8816 22.0673 16.8616 21.951C16.8342 21.7914 16.8085 21.6319 16.7831 21.4723C16.7303 21.1389 16.6874 20.8328 16.6524 20.5397L16.6499 20.5159C16.6413 20.4507 16.6343 20.3846 16.627 20.3163C16.6047 20.1183 16.5869 19.932 16.5723 19.747L16.5691 19.7079C16.559 19.5789 16.5504 19.4486 16.5428 19.3183C16.6836 18.9524 18.3774 17.6969 19.7413 16.6858C21.9144 15.0749 24.3772 13.2492 25.2525 11.9368C25.2553 11.9324 25.2582 11.9282 25.261 11.9244C25.2782 11.933 25.2998 11.9448 25.3271 11.96C26.0007 12.3364 26.6806 12.5436 27.2807 12.7267C28.4087 13.0709 29.2996 13.343 29.8488 14.512C30.3078 15.4906 30.5774 16.572 30.673 17.817C30.7115 18.3173 30.7271 18.7909 30.721 19.268C30.7207 19.2963 30.7201 19.3242 30.7198 19.3525C30.7191 19.4081 30.7178 19.4638 30.7159 19.5207C30.7147 19.5674 30.7134 19.6135 30.7115 19.6602L30.7096 19.7088C30.7083 19.7368 30.7074 19.7651 30.7061 19.7931C30.7042 19.8337 30.702 19.8741 30.7001 19.9142C30.6985 19.945 30.6969 19.9761 30.695 20.007C30.6934 20.0337 30.6918 20.0597 30.6899 20.0861C30.6867 20.1344 30.6835 20.1827 30.6797 20.2314C30.6781 20.2533 30.6765 20.2749 30.6746 20.2969C30.6705 20.3506 30.666 20.4046 30.6613 20.4586C30.6603 20.4672 30.6597 20.4761 30.6587 20.4847C30.6559 20.5171 30.6524 20.5499 30.6492 20.5823C30.6425 20.6519 30.6352 20.7218 30.6276 20.7921C30.6238 20.8254 30.6206 20.8585 30.6168 20.8922V20.8928C30.6091 20.9596 30.6009 21.0266 30.5923 21.0943C30.5907 21.1061 30.5894 21.1175 30.5878 21.1293C30.5325 21.5594 30.4594 22.0072 30.3669 22.4869L30.3476 22.5883C30.3167 22.7459 30.2834 22.9096 30.2471 23.0816L30.2392 23.1191C30.2246 23.1877 30.2099 23.257 30.1947 23.3257L30.1553 23.5056C30.141 23.5707 30.1267 23.6365 30.112 23.701L29.9493 24.4086C29.8307 24.5538 29.7157 24.6956 29.6076 24.8294L29.5993 24.8402C29.4442 25.0506 28.5749 26.1103 28.5749 26.1103C28.5132 26.3706 28.2799 27.4176 28.2103 28.6016C28.2068 28.6572 28.204 28.7128 28.2021 28.7647C28.1992 28.8209 28.197 28.8769 28.196 28.9287C28.1948 28.9649 28.1938 29.0005 28.1932 29.0358C28.1652 30.3024 28.361 31.2944 28.7736 31.9809C28.7853 32.0013 28.798 32.0216 28.8085 32.0375C29.1531 32.5839 29.6314 32.9278 30.2344 33.0648C29.8587 33.4386 29.4706 33.8515 29.0665 34.2822C27.4105 36.0469 25.5346 38.0462 23.7505 38.0462C23.7413 38.0462 23.7318 38.0462 23.7225 38.0458C21.7385 38.0226 19.7062 35.7345 17.9132 33.7154C17.719 33.4968 17.5283 33.2822 17.3414 33.0747C17.1939 32.9113 17.0194 32.7193 16.8357 32.5238C16.9759 32.4939 17.1097 32.465 17.2343 32.4377L17.3897 32.404C17.4256 32.3961 17.4612 32.3884 17.4927 32.3811L17.7381 32.3264C17.7991 32.3125 17.8588 32.2991 17.9167 32.2864C17.9272 32.2845 17.937 32.2823 17.9466 32.2797L17.9698 32.2743C17.9834 32.2715 17.9968 32.2683 18.0101 32.2651L18.2101 32.2193C18.2453 32.2114 18.2797 32.2034 18.313 32.1955C18.3353 32.191 18.3582 32.1856 18.3855 32.1793L18.3938 32.1774C18.4316 32.1685 18.464 32.158 18.4882 32.1497C18.8187 32.0362 19.0841 31.7721 19.2154 31.4272C19.2189 31.4187 19.2224 31.4095 19.2265 31.4012C19.5946 30.6342 19.7818 29.8043 19.799 28.866C19.8003 28.813 19.8006 28.7602 19.8006 28.7065C19.7996 28.6585 19.7958 28.6134 19.792 28.5695L19.7921 28.5696ZM31.0292 22.2199C31.0467 22.122 31.0632 22.0263 31.0785 21.9326C31.0852 21.8919 31.0915 21.8518 31.0979 21.8115C31.0982 21.8102 31.0982 21.8089 31.0985 21.8077C31.1023 21.7832 31.1065 21.7584 31.1103 21.7342C31.122 21.6608 31.1328 21.5887 31.143 21.5184C31.1484 21.4828 31.1529 21.4472 31.158 21.4116V21.4107C31.1624 21.3792 31.1672 21.3477 31.1713 21.3163C31.1723 21.3093 31.1735 21.3016 31.1745 21.2924C31.1843 21.2231 31.1926 21.1538 31.2012 21.0839C31.2034 21.0648 31.2056 21.0458 31.2079 21.0264C31.2082 21.0235 31.2085 21.0207 31.2088 21.0175C31.2129 20.9828 31.2171 20.9482 31.2209 20.9142C31.2276 20.8557 31.233 20.7972 31.239 20.7391C31.2431 20.6981 31.2479 20.6567 31.2517 20.6161C31.252 20.6119 31.2527 20.6078 31.253 20.6037L31.2536 20.5967C31.2587 20.5417 31.2641 20.487 31.2686 20.432L31.2698 20.4149C31.2733 20.3713 31.2768 20.3287 31.28 20.2868C31.281 20.276 31.2816 20.2648 31.2826 20.254L31.288 20.1781C31.2934 20.0999 31.2978 20.021 31.3023 19.9416C31.3038 19.9136 31.3051 19.886 31.3064 19.858C31.307 19.8434 31.308 19.8288 31.3086 19.8141C31.3099 19.7862 31.3115 19.7585 31.3118 19.735L31.3137 19.6848C31.315 19.6523 31.3159 19.6202 31.3169 19.5881C31.3181 19.549 31.3191 19.5096 31.3201 19.4705C31.321 19.4334 31.3223 19.3962 31.3226 19.3596C31.3232 19.3304 31.3239 19.3005 31.3239 19.2738C31.3242 19.2604 31.3239 19.2471 31.3239 19.2337C31.3242 19.2118 31.3248 19.1902 31.3248 19.1683C31.4981 19.0532 31.6665 19.0071 31.7994 19.0418C31.9675 19.0853 32.0651 19.2528 32.1172 19.3863C32.3677 20.0239 32.1124 21.1269 31.5597 21.7947L31.5594 21.795C31.3868 22.0057 31.2002 22.1523 31.0292 22.22L31.0292 22.2199ZM32.2755 38.8087L30.9879 43.6009H30.3083L30.2743 43.6028C30.2743 43.6028 30.2699 43.6031 30.26 43.6022L30.2457 43.6009H16.5244L15.2368 38.8087C15.1828 38.6068 14.8856 38.6463 14.8856 38.8551V43.6009H8.67865L9.41797 37.3815C9.59533 35.8857 10.4379 34.5803 11.7297 33.7996C11.949 33.6667 12.1817 33.5498 12.4204 33.4525C12.7662 33.3123 13.1285 33.2116 13.4969 33.1531C13.5903 33.1382 13.685 33.1229 13.7807 33.107C14.0677 33.0597 14.364 33.0082 14.6653 32.9535L15.061 32.8813L15.0524 32.8645L16.1366 32.6649C16.4055 32.9414 16.6779 33.2399 16.8918 33.4773C17.0774 33.6836 17.2672 33.8972 17.4604 34.1146C19.3367 36.227 21.4631 38.6214 23.7138 38.6478C23.7256 38.6478 23.737 38.6481 23.7488 38.6481C25.7942 38.6481 27.7648 36.5478 29.5047 34.6937C30.0412 34.1222 30.5495 33.5812 31.0313 33.1305C31.5119 33.1267 33.6615 33.1118 33.9221 33.1531C35.3503 33.3791 36.5962 34.2169 37.34 35.4518C37.6969 36.0442 37.9194 36.6933 38.0011 37.3811L38.7404 43.6005L32.6266 43.6008V38.855C32.6266 38.6462 32.3294 38.6068 32.2754 38.8086L32.2755 38.8087Z" />
  </mask>
  <path d="M38.6007 37.3107C38.5111 36.558 38.2708 35.847 37.8881 35.1954C37.6281 33.5658 36.7079 30.3332 36.0338 27.9653C35.9461 27.6576 35.8583 27.3496 35.7712 27.0416C35.6339 26.5566 35.4947 26.0715 35.3714 25.5827C35.2347 25.0407 35.257 24.4635 35.2519 23.9079C35.2496 23.6587 35.2105 23.4044 35.2706 23.1603C35.3348 22.8988 35.4143 22.6413 35.4801 22.3803C35.6915 21.5406 35.8253 20.6801 35.9181 19.8201C36.0328 18.7562 36.0786 17.6828 36.0341 16.6133C35.9896 15.5421 35.8574 14.464 35.5506 13.4342C35.0643 11.8001 34.0272 9.93433 32.9694 8.79133C32.9385 8.75796 32.8994 8.71632 32.853 8.66706C32.5091 8.30121 31.7934 7.53968 30.9237 6.43355C30.6974 6.14558 30.5842 5.98634 30.5016 5.87C30.4069 5.73682 30.3446 5.64877 30.2066 5.50321C29.3312 4.57893 28.2232 3.87745 26.9143 3.41877C24.7399 2.65434 22.8122 3.1219 21.7737 3.37331C18.7866 4.09737 16.9571 5.72383 15.9479 6.96089C14.4209 8.83336 13.878 10.831 13.6921 12.1847C13.5821 12.5757 13.3465 13.5597 13.3297 13.6354C13.0192 14.2088 12.4893 14.9309 12.0208 15.5692C11.4973 16.2821 11.1715 16.7332 11.0724 17.0078C10.635 18.2198 10.8041 19.4222 11.0272 20.4387C11.2475 21.4443 11.9995 23.5222 12.4969 24.8971C12.7026 25.4654 12.9152 26.0531 12.9359 26.1475C13.2321 27.7727 12.167 31.3583 11.333 33.3376C9.92935 34.2203 9.01492 35.6626 8.81939 37.3113L8 44.2052L30.2187 44.2045C30.2368 44.2058 30.2543 44.2065 30.2718 44.2065C30.289 44.2065 30.3061 44.2058 30.3226 44.2045H39.4197L38.6007 37.3107ZM13.5292 26.0386C13.5082 25.9232 13.3916 25.5961 13.0642 24.6912C12.5722 23.3311 11.8284 21.2755 11.6164 20.3087C11.4015 19.3298 11.2556 18.2767 11.6396 17.2122C11.7143 17.0056 12.1173 16.4567 12.507 15.9258C12.9618 15.306 13.4656 14.6137 13.7991 14.0232C15.1026 13.4863 19.7778 11.4543 19.8614 9.68293C19.8697 9.50907 19.8363 9.24938 19.6599 9.15943C19.5213 9.08855 19.3455 9.13305 19.3042 9.29452C19.2775 9.39877 19.3007 9.51098 19.3179 9.61459C19.3334 9.70932 19.3013 9.81643 19.2657 9.90415C19.2238 10.0071 19.165 10.1025 19.0995 10.1921C19.0197 10.3015 18.9291 10.4025 18.8341 10.4989C18.7225 10.612 18.6037 10.7182 18.4816 10.8199C18.3433 10.9353 18.2 11.0449 18.0541 11.1504C17.8936 11.2668 17.7296 11.3783 17.5637 11.4864C17.3854 11.6024 17.2045 11.7143 17.0221 11.823C16.8304 11.9371 16.6365 12.048 16.441 12.1558C16.2398 12.2667 16.037 12.3748 15.8327 12.4803C15.6261 12.5868 15.4182 12.6907 15.209 12.7921C15.0012 12.8929 14.7923 12.9908 14.5822 13.0865C14.3938 13.1723 14.204 13.2555 14.0136 13.3372C14.162 12.6821 14.3025 12.0252 14.4535 11.3704C14.7923 9.90036 15.4605 8.5126 16.4143 7.34259C17.3647 6.17738 19.0907 4.64471 21.9173 3.95942C22.8924 3.72326 24.7077 3.28335 26.7136 3.98834C27.9313 4.4149 28.9589 5.06429 29.7675 5.91834C29.8762 6.03341 29.9178 6.09189 30.0087 6.21998C30.0948 6.3414 30.2131 6.50763 30.4483 6.80704C31.3342 7.93417 32.0623 8.70872 32.4123 9.08091C32.4574 9.12922 32.4956 9.16958 32.5255 9.20201C33.5257 10.283 34.5085 12.0534 34.971 13.6071C35.9954 17.0491 35.128 21.6535 34.7135 22.8523C34.5975 23.1873 34.6586 24.6614 34.69 25.2797L34.6926 25.3061C34.7339 25.6007 34.9945 26.5241 35.4522 28.1308C35.9833 29.9963 36.6686 32.4024 37.0564 34.1133C37.0523 34.1092 37.0482 34.1054 37.044 34.1013C36.9992 34.0564 36.9541 34.0123 36.908 33.969C36.8994 33.9611 36.8908 33.9535 36.8822 33.9455C36.8425 33.909 36.8025 33.8727 36.7618 33.8374C36.7494 33.8266 36.7373 33.8158 36.7249 33.8053C36.6763 33.764 36.6273 33.723 36.5774 33.6833C36.5727 33.6795 36.5679 33.676 36.5631 33.6722C36.517 33.6356 36.4703 33.6003 36.4233 33.5654C36.4102 33.5558 36.3972 33.546 36.3842 33.5364C36.333 33.4992 36.2812 33.4627 36.2265 33.4258C36.1731 33.3899 36.1188 33.3549 36.0641 33.3209C36.0507 33.3127 36.0371 33.3044 36.0237 33.2961C35.9748 33.2663 35.9258 33.237 35.8759 33.2087C35.8689 33.2049 35.8623 33.2008 35.8556 33.197C35.7996 33.1655 35.7434 33.1353 35.6862 33.1057C35.6725 33.0988 35.6592 33.0921 35.6455 33.0851C35.5969 33.0606 35.5479 33.0365 35.4986 33.0133C35.4878 33.0082 35.4773 33.0031 35.4665 32.998C35.4084 32.9713 35.3499 32.9456 35.2908 32.9204C35.2777 32.915 35.2647 32.91 35.2517 32.9045C35.2021 32.8842 35.1522 32.8645 35.102 32.8457C35.0883 32.8407 35.0746 32.8353 35.061 32.8302C35.0009 32.8079 34.9402 32.7869 34.8791 32.7666C34.8677 32.7628 34.8566 32.7596 34.8451 32.7558C34.7933 32.7389 34.7409 32.7231 34.6884 32.7081C34.6729 32.7037 34.6573 32.6989 34.6414 32.6948C34.5791 32.6773 34.5168 32.6608 34.4539 32.6455C34.4459 32.6436 34.4383 32.642 34.4303 32.6401C34.3741 32.6267 34.3175 32.6144 34.2606 32.6029C34.2438 32.5994 34.2266 32.5959 34.2098 32.5927C34.1456 32.5803 34.081 32.5683 34.0162 32.5581C33.855 32.5327 30.8848 32.5292 30.873 32.5292C30.1715 32.5292 29.6623 32.2628 29.3146 31.7117C29.3073 31.7002 29.2997 31.6884 29.2907 31.6732C28.9357 31.0823 28.7688 30.1993 28.7943 29.0474C28.7949 29.0153 28.7955 28.9838 28.7968 28.9473C28.7981 28.8961 28.8 28.8452 28.8028 28.7906C28.8048 28.74 28.8073 28.6898 28.8105 28.638C28.8734 27.5647 29.0765 26.6111 29.1483 26.2983C29.1483 26.2983 30.3101 24.9179 30.4169 24.7863C30.4897 24.6967 30.5396 24.5912 30.5634 24.4783L30.6985 23.834C30.7135 23.767 30.7281 23.7005 30.7427 23.6344L30.7821 23.4555C30.7977 23.3849 30.8126 23.3147 30.8276 23.2444L30.8358 23.2063C30.8606 23.0887 30.8841 22.9746 30.9064 22.8636C31.2859 22.8357 31.6797 22.5982 32.0242 22.1803C32.7229 21.3357 33.0102 20.0119 32.6784 19.1671C32.5322 18.7942 32.2734 18.5428 31.9502 18.4589C31.7474 18.4065 31.5309 18.422 31.3145 18.5012C31.3062 18.2622 31.2929 18.02 31.2738 17.7714C31.1724 16.4523 30.8848 15.3023 30.3943 14.2563C29.7313 12.8447 28.6261 12.5075 27.4561 12.1502C26.8573 11.9675 26.2381 11.7784 25.6205 11.4335C25.4276 11.3257 25.0681 11.1255 24.7503 11.6026C23.9331 12.8276 21.4093 14.6984 19.3815 16.2016C16.8082 18.109 15.9103 18.8219 15.9386 19.3295C15.9469 19.4722 15.9564 19.6143 15.9688 19.7735C15.9694 19.7821 15.9701 19.7904 15.971 19.7986C15.9863 19.989 16.0044 20.1807 16.0273 20.3841C16.0349 20.4541 16.0425 20.5243 16.0508 20.5894L16.053 20.6092C16.0896 20.913 16.1335 21.2264 16.1872 21.5674C16.2129 21.7295 16.2393 21.8917 16.2669 22.0538C16.2873 22.1717 16.3073 22.289 16.3283 22.4062C16.3283 22.4062 16.3753 22.6656 16.3779 22.6783C16.3807 22.6917 16.3833 22.7057 16.3865 22.7241L16.458 23.1046C16.5435 23.56 16.6411 24.0791 16.71 24.4551C16.7695 24.7793 16.91 25.1322 17.0848 25.3972C17.1337 25.4726 17.1871 25.5428 17.2447 25.6064L17.3537 25.7211C17.5546 25.9293 17.7281 26.1092 17.901 26.277C18.0084 26.3816 18.1003 26.4671 18.1893 26.5459C18.4929 26.8161 18.8034 27.0469 19.1804 27.2818L19.1832 28.4591C19.1826 28.4909 19.1836 28.5249 19.1867 28.5653C19.188 28.584 19.1896 28.6028 19.1912 28.6212C19.194 28.6539 19.1966 28.6844 19.1966 28.7061C19.1966 28.7544 19.1966 28.8017 19.1953 28.852C19.1797 29.7041 19.0119 30.4527 18.682 31.1398C18.6715 31.1621 18.6617 31.1853 18.6521 31.2097C18.5838 31.389 18.4525 31.5235 18.2923 31.5784C18.2802 31.5826 18.2678 31.5867 18.2551 31.5896L18.2364 31.594C18.2205 31.5978 18.2036 31.6017 18.1766 31.6074C18.1445 31.615 18.1111 31.6229 18.0752 31.6309L17.7936 31.6951C17.7319 31.7088 17.6681 31.7231 17.6058 31.7371L17.362 31.7911C17.3286 31.7987 17.2949 31.806 17.2606 31.8133L17.1156 31.8448C16.8534 31.9023 16.5534 31.9662 16.2282 32.0336L14.1549 32.4169L14.1619 32.4309C13.9026 32.476 13.6489 32.5183 13.4035 32.5574C12.99 32.6229 12.5832 32.7357 12.1945 32.8937C12.1811 32.8991 12.1678 32.9045 12.1547 32.9099C12.9405 30.8582 13.8343 27.7083 13.5295 26.038L13.5292 26.0386ZM19.7921 28.5696C19.7908 28.554 19.7896 28.5381 19.7883 28.5216C19.787 28.5041 19.7858 28.4863 19.7864 28.4698V28.4653L19.7826 26.9406L19.6364 26.8532C19.2197 26.6037 18.9069 26.3771 18.5897 26.0948C18.5071 26.0217 18.4219 25.9419 18.3211 25.844C18.1552 25.6829 17.9848 25.5062 17.7875 25.3018L17.709 25.2198C17.667 25.1756 17.6273 25.1247 17.5894 25.0666C17.4598 24.8698 17.3472 24.5869 17.3034 24.346C17.2344 23.969 17.1365 23.4488 17.051 22.9923L16.9795 22.6121C16.976 22.5921 16.9722 22.5721 16.968 22.5527L16.9223 22.2994C16.9016 22.1833 16.8816 22.0673 16.8616 21.951C16.8342 21.7914 16.8085 21.6319 16.7831 21.4723C16.7303 21.1389 16.6874 20.8328 16.6524 20.5397L16.6499 20.5159C16.6413 20.4507 16.6343 20.3846 16.627 20.3163C16.6047 20.1183 16.5869 19.932 16.5723 19.747L16.5691 19.7079C16.559 19.5789 16.5504 19.4486 16.5428 19.3183C16.6836 18.9524 18.3774 17.6969 19.7413 16.6858C21.9144 15.0749 24.3772 13.2492 25.2525 11.9368C25.2553 11.9324 25.2582 11.9282 25.261 11.9244C25.2782 11.933 25.2998 11.9448 25.3271 11.96C26.0007 12.3364 26.6806 12.5436 27.2807 12.7267C28.4087 13.0709 29.2996 13.343 29.8488 14.512C30.3078 15.4906 30.5774 16.572 30.673 17.817C30.7115 18.3173 30.7271 18.7909 30.721 19.268C30.7207 19.2963 30.7201 19.3242 30.7198 19.3525C30.7191 19.4081 30.7178 19.4638 30.7159 19.5207C30.7147 19.5674 30.7134 19.6135 30.7115 19.6602L30.7096 19.7088C30.7083 19.7368 30.7074 19.7651 30.7061 19.7931C30.7042 19.8337 30.702 19.8741 30.7001 19.9142C30.6985 19.945 30.6969 19.9761 30.695 20.007C30.6934 20.0337 30.6918 20.0597 30.6899 20.0861C30.6867 20.1344 30.6835 20.1827 30.6797 20.2314C30.6781 20.2533 30.6765 20.2749 30.6746 20.2969C30.6705 20.3506 30.666 20.4046 30.6613 20.4586C30.6603 20.4672 30.6597 20.4761 30.6587 20.4847C30.6559 20.5171 30.6524 20.5499 30.6492 20.5823C30.6425 20.6519 30.6352 20.7218 30.6276 20.7921C30.6238 20.8254 30.6206 20.8585 30.6168 20.8922V20.8928C30.6091 20.9596 30.6009 21.0266 30.5923 21.0943C30.5907 21.1061 30.5894 21.1175 30.5878 21.1293C30.5325 21.5594 30.4594 22.0072 30.3669 22.4869L30.3476 22.5883C30.3167 22.7459 30.2834 22.9096 30.2471 23.0816L30.2392 23.1191C30.2246 23.1877 30.2099 23.257 30.1947 23.3257L30.1553 23.5056C30.141 23.5707 30.1267 23.6365 30.112 23.701L29.9493 24.4086C29.8307 24.5538 29.7157 24.6956 29.6076 24.8294L29.5993 24.8402C29.4442 25.0506 28.5749 26.1103 28.5749 26.1103C28.5132 26.3706 28.2799 27.4176 28.2103 28.6016C28.2068 28.6572 28.204 28.7128 28.2021 28.7647C28.1992 28.8209 28.197 28.8769 28.196 28.9287C28.1948 28.9649 28.1938 29.0005 28.1932 29.0358C28.1652 30.3024 28.361 31.2944 28.7736 31.9809C28.7853 32.0013 28.798 32.0216 28.8085 32.0375C29.1531 32.5839 29.6314 32.9278 30.2344 33.0648C29.8587 33.4386 29.4706 33.8515 29.0665 34.2822C27.4105 36.0469 25.5346 38.0462 23.7505 38.0462C23.7413 38.0462 23.7318 38.0462 23.7225 38.0458C21.7385 38.0226 19.7062 35.7345 17.9132 33.7154C17.719 33.4968 17.5283 33.2822 17.3414 33.0747C17.1939 32.9113 17.0194 32.7193 16.8357 32.5238C16.9759 32.4939 17.1097 32.465 17.2343 32.4377L17.3897 32.404C17.4256 32.3961 17.4612 32.3884 17.4927 32.3811L17.7381 32.3264C17.7991 32.3125 17.8588 32.2991 17.9167 32.2864C17.9272 32.2845 17.937 32.2823 17.9466 32.2797L17.9698 32.2743C17.9834 32.2715 17.9968 32.2683 18.0101 32.2651L18.2101 32.2193C18.2453 32.2114 18.2797 32.2034 18.313 32.1955C18.3353 32.191 18.3582 32.1856 18.3855 32.1793L18.3938 32.1774C18.4316 32.1685 18.464 32.158 18.4882 32.1497C18.8187 32.0362 19.0841 31.7721 19.2154 31.4272C19.2189 31.4187 19.2224 31.4095 19.2265 31.4012C19.5946 30.6342 19.7818 29.8043 19.799 28.866C19.8003 28.813 19.8006 28.7602 19.8006 28.7065C19.7996 28.6585 19.7958 28.6134 19.792 28.5695L19.7921 28.5696ZM31.0292 22.2199C31.0467 22.122 31.0632 22.0263 31.0785 21.9326C31.0852 21.8919 31.0915 21.8518 31.0979 21.8115C31.0982 21.8102 31.0982 21.8089 31.0985 21.8077C31.1023 21.7832 31.1065 21.7584 31.1103 21.7342C31.122 21.6608 31.1328 21.5887 31.143 21.5184C31.1484 21.4828 31.1529 21.4472 31.158 21.4116V21.4107C31.1624 21.3792 31.1672 21.3477 31.1713 21.3163C31.1723 21.3093 31.1735 21.3016 31.1745 21.2924C31.1843 21.2231 31.1926 21.1538 31.2012 21.0839C31.2034 21.0648 31.2056 21.0458 31.2079 21.0264C31.2082 21.0235 31.2085 21.0207 31.2088 21.0175C31.2129 20.9828 31.2171 20.9482 31.2209 20.9142C31.2276 20.8557 31.233 20.7972 31.239 20.7391C31.2431 20.6981 31.2479 20.6567 31.2517 20.6161C31.252 20.6119 31.2527 20.6078 31.253 20.6037L31.2536 20.5967C31.2587 20.5417 31.2641 20.487 31.2686 20.432L31.2698 20.4149C31.2733 20.3713 31.2768 20.3287 31.28 20.2868C31.281 20.276 31.2816 20.2648 31.2826 20.254L31.288 20.1781C31.2934 20.0999 31.2978 20.021 31.3023 19.9416C31.3038 19.9136 31.3051 19.886 31.3064 19.858C31.307 19.8434 31.308 19.8288 31.3086 19.8141C31.3099 19.7862 31.3115 19.7585 31.3118 19.735L31.3137 19.6848C31.315 19.6523 31.3159 19.6202 31.3169 19.5881C31.3181 19.549 31.3191 19.5096 31.3201 19.4705C31.321 19.4334 31.3223 19.3962 31.3226 19.3596C31.3232 19.3304 31.3239 19.3005 31.3239 19.2738C31.3242 19.2604 31.3239 19.2471 31.3239 19.2337C31.3242 19.2118 31.3248 19.1902 31.3248 19.1683C31.4981 19.0532 31.6665 19.0071 31.7994 19.0418C31.9675 19.0853 32.0651 19.2528 32.1172 19.3863C32.3677 20.0239 32.1124 21.1269 31.5597 21.7947L31.5594 21.795C31.3868 22.0057 31.2002 22.1523 31.0292 22.22L31.0292 22.2199ZM32.2755 38.8087L30.9879 43.6009H30.3083L30.2743 43.6028C30.2743 43.6028 30.2699 43.6031 30.26 43.6022L30.2457 43.6009H16.5244L15.2368 38.8087C15.1828 38.6068 14.8856 38.6463 14.8856 38.8551V43.6009H8.67865L9.41797 37.3815C9.59533 35.8857 10.4379 34.5803 11.7297 33.7996C11.949 33.6667 12.1817 33.5498 12.4204 33.4525C12.7662 33.3123 13.1285 33.2116 13.4969 33.1531C13.5903 33.1382 13.685 33.1229 13.7807 33.107C14.0677 33.0597 14.364 33.0082 14.6653 32.9535L15.061 32.8813L15.0524 32.8645L16.1366 32.6649C16.4055 32.9414 16.6779 33.2399 16.8918 33.4773C17.0774 33.6836 17.2672 33.8972 17.4604 34.1146C19.3367 36.227 21.4631 38.6214 23.7138 38.6478C23.7256 38.6478 23.737 38.6481 23.7488 38.6481C25.7942 38.6481 27.7648 36.5478 29.5047 34.6937C30.0412 34.1222 30.5495 33.5812 31.0313 33.1305C31.5119 33.1267 33.6615 33.1118 33.9221 33.1531C35.3503 33.3791 36.5962 34.2169 37.34 35.4518C37.6969 36.0442 37.9194 36.6933 38.0011 37.3811L38.7404 43.6005L32.6266 43.6008V38.855C32.6266 38.6462 32.3294 38.6068 32.2754 38.8086L32.2755 38.8087Z" fill="white" />
  <path d="M38.6007 37.3107C38.5111 36.558 38.2708 35.847 37.8881 35.1954C37.6281 33.5658 36.7079 30.3332 36.0338 27.9653C35.9461 27.6576 35.8583 27.3496 35.7712 27.0416C35.6339 26.5566 35.4947 26.0715 35.3714 25.5827C35.2347 25.0407 35.257 24.4635 35.2519 23.9079C35.2496 23.6587 35.2105 23.4044 35.2706 23.1603C35.3348 22.8988 35.4143 22.6413 35.4801 22.3803C35.6915 21.5406 35.8253 20.6801 35.9181 19.8201C36.0328 18.7562 36.0786 17.6828 36.0341 16.6133C35.9896 15.5421 35.8574 14.464 35.5506 13.4342C35.0643 11.8001 34.0272 9.93433 32.9694 8.79133C32.9385 8.75796 32.8994 8.71632 32.853 8.66706C32.5091 8.30121 31.7934 7.53968 30.9237 6.43355C30.6974 6.14558 30.5842 5.98634 30.5016 5.87C30.4069 5.73682 30.3446 5.64877 30.2066 5.50321C29.3312 4.57893 28.2232 3.87745 26.9143 3.41877C24.7399 2.65434 22.8122 3.1219 21.7737 3.37331C18.7866 4.09737 16.9571 5.72383 15.9479 6.96089C14.4209 8.83336 13.878 10.831 13.6921 12.1847C13.5821 12.5757 13.3465 13.5597 13.3297 13.6354C13.0192 14.2088 12.4893 14.9309 12.0208 15.5692C11.4973 16.2821 11.1715 16.7332 11.0724 17.0078C10.635 18.2198 10.8041 19.4222 11.0272 20.4387C11.2475 21.4443 11.9995 23.5222 12.4969 24.8971C12.7026 25.4654 12.9152 26.0531 12.9359 26.1475C13.2321 27.7727 12.167 31.3583 11.333 33.3376C9.92935 34.2203 9.01492 35.6626 8.81939 37.3113L8 44.2052L30.2187 44.2045C30.2368 44.2058 30.2543 44.2065 30.2718 44.2065C30.289 44.2065 30.3061 44.2058 30.3226 44.2045H39.4197L38.6007 37.3107ZM13.5292 26.0386C13.5082 25.9232 13.3916 25.5961 13.0642 24.6912C12.5722 23.3311 11.8284 21.2755 11.6164 20.3087C11.4015 19.3298 11.2556 18.2767 11.6396 17.2122C11.7143 17.0056 12.1173 16.4567 12.507 15.9258C12.9618 15.306 13.4656 14.6137 13.7991 14.0232C15.1026 13.4863 19.7778 11.4543 19.8614 9.68293C19.8697 9.50907 19.8363 9.24938 19.6599 9.15943C19.5213 9.08855 19.3455 9.13305 19.3042 9.29452C19.2775 9.39877 19.3007 9.51098 19.3179 9.61459C19.3334 9.70932 19.3013 9.81643 19.2657 9.90415C19.2238 10.0071 19.165 10.1025 19.0995 10.1921C19.0197 10.3015 18.9291 10.4025 18.8341 10.4989C18.7225 10.612 18.6037 10.7182 18.4816 10.8199C18.3433 10.9353 18.2 11.0449 18.0541 11.1504C17.8936 11.2668 17.7296 11.3783 17.5637 11.4864C17.3854 11.6024 17.2045 11.7143 17.0221 11.823C16.8304 11.9371 16.6365 12.048 16.441 12.1558C16.2398 12.2667 16.037 12.3748 15.8327 12.4803C15.6261 12.5868 15.4182 12.6907 15.209 12.7921C15.0012 12.8929 14.7923 12.9908 14.5822 13.0865C14.3938 13.1723 14.204 13.2555 14.0136 13.3372C14.162 12.6821 14.3025 12.0252 14.4535 11.3704C14.7923 9.90036 15.4605 8.5126 16.4143 7.34259C17.3647 6.17738 19.0907 4.64471 21.9173 3.95942C22.8924 3.72326 24.7077 3.28335 26.7136 3.98834C27.9313 4.4149 28.9589 5.06429 29.7675 5.91834C29.8762 6.03341 29.9178 6.09189 30.0087 6.21998C30.0948 6.3414 30.2131 6.50763 30.4483 6.80704C31.3342 7.93417 32.0623 8.70872 32.4123 9.08091C32.4574 9.12922 32.4956 9.16958 32.5255 9.20201C33.5257 10.283 34.5085 12.0534 34.971 13.6071C35.9954 17.0491 35.128 21.6535 34.7135 22.8523C34.5975 23.1873 34.6586 24.6614 34.69 25.2797L34.6926 25.3061C34.7339 25.6007 34.9945 26.5241 35.4522 28.1308C35.9833 29.9963 36.6686 32.4024 37.0564 34.1133C37.0523 34.1092 37.0482 34.1054 37.044 34.1013C36.9992 34.0564 36.9541 34.0123 36.908 33.969C36.8994 33.9611 36.8908 33.9535 36.8822 33.9455C36.8425 33.909 36.8025 33.8727 36.7618 33.8374C36.7494 33.8266 36.7373 33.8158 36.7249 33.8053C36.6763 33.764 36.6273 33.723 36.5774 33.6833C36.5727 33.6795 36.5679 33.676 36.5631 33.6722C36.517 33.6356 36.4703 33.6003 36.4233 33.5654C36.4102 33.5558 36.3972 33.546 36.3842 33.5364C36.333 33.4992 36.2812 33.4627 36.2265 33.4258C36.1731 33.3899 36.1188 33.3549 36.0641 33.3209C36.0507 33.3127 36.0371 33.3044 36.0237 33.2961C35.9748 33.2663 35.9258 33.237 35.8759 33.2087C35.8689 33.2049 35.8623 33.2008 35.8556 33.197C35.7996 33.1655 35.7434 33.1353 35.6862 33.1057C35.6725 33.0988 35.6592 33.0921 35.6455 33.0851C35.5969 33.0606 35.5479 33.0365 35.4986 33.0133C35.4878 33.0082 35.4773 33.0031 35.4665 32.998C35.4084 32.9713 35.3499 32.9456 35.2908 32.9204C35.2777 32.915 35.2647 32.91 35.2517 32.9045C35.2021 32.8842 35.1522 32.8645 35.102 32.8457C35.0883 32.8407 35.0746 32.8353 35.061 32.8302C35.0009 32.8079 34.9402 32.7869 34.8791 32.7666C34.8677 32.7628 34.8566 32.7596 34.8451 32.7558C34.7933 32.7389 34.7409 32.7231 34.6884 32.7081C34.6729 32.7037 34.6573 32.6989 34.6414 32.6948C34.5791 32.6773 34.5168 32.6608 34.4539 32.6455C34.4459 32.6436 34.4383 32.642 34.4303 32.6401C34.3741 32.6267 34.3175 32.6144 34.2606 32.6029C34.2438 32.5994 34.2266 32.5959 34.2098 32.5927C34.1456 32.5803 34.081 32.5683 34.0162 32.5581C33.855 32.5327 30.8848 32.5292 30.873 32.5292C30.1715 32.5292 29.6623 32.2628 29.3146 31.7117C29.3073 31.7002 29.2997 31.6884 29.2907 31.6732C28.9357 31.0823 28.7688 30.1993 28.7943 29.0474C28.7949 29.0153 28.7955 28.9838 28.7968 28.9473C28.7981 28.8961 28.8 28.8452 28.8028 28.7906C28.8048 28.74 28.8073 28.6898 28.8105 28.638C28.8734 27.5647 29.0765 26.6111 29.1483 26.2983C29.1483 26.2983 30.3101 24.9179 30.4169 24.7863C30.4897 24.6967 30.5396 24.5912 30.5634 24.4783L30.6985 23.834C30.7135 23.767 30.7281 23.7005 30.7427 23.6344L30.7821 23.4555C30.7977 23.3849 30.8126 23.3147 30.8276 23.2444L30.8358 23.2063C30.8606 23.0887 30.8841 22.9746 30.9064 22.8636C31.2859 22.8357 31.6797 22.5982 32.0242 22.1803C32.7229 21.3357 33.0102 20.0119 32.6784 19.1671C32.5322 18.7942 32.2734 18.5428 31.9502 18.4589C31.7474 18.4065 31.5309 18.422 31.3145 18.5012C31.3062 18.2622 31.2929 18.02 31.2738 17.7714C31.1724 16.4523 30.8848 15.3023 30.3943 14.2563C29.7313 12.8447 28.6261 12.5075 27.4561 12.1502C26.8573 11.9675 26.2381 11.7784 25.6205 11.4335C25.4276 11.3257 25.0681 11.1255 24.7503 11.6026C23.9331 12.8276 21.4093 14.6984 19.3815 16.2016C16.8082 18.109 15.9103 18.8219 15.9386 19.3295C15.9469 19.4722 15.9564 19.6143 15.9688 19.7735C15.9694 19.7821 15.9701 19.7904 15.971 19.7986C15.9863 19.989 16.0044 20.1807 16.0273 20.3841C16.0349 20.4541 16.0425 20.5243 16.0508 20.5894L16.053 20.6092C16.0896 20.913 16.1335 21.2264 16.1872 21.5674C16.2129 21.7295 16.2393 21.8917 16.2669 22.0538C16.2873 22.1717 16.3073 22.289 16.3283 22.4062C16.3283 22.4062 16.3753 22.6656 16.3779 22.6783C16.3807 22.6917 16.3833 22.7057 16.3865 22.7241L16.458 23.1046C16.5435 23.56 16.6411 24.0791 16.71 24.4551C16.7695 24.7793 16.91 25.1322 17.0848 25.3972C17.1337 25.4726 17.1871 25.5428 17.2447 25.6064L17.3537 25.7211C17.5546 25.9293 17.7281 26.1092 17.901 26.277C18.0084 26.3816 18.1003 26.4671 18.1893 26.5459C18.4929 26.8161 18.8034 27.0469 19.1804 27.2818L19.1832 28.4591C19.1826 28.4909 19.1836 28.5249 19.1867 28.5653C19.188 28.584 19.1896 28.6028 19.1912 28.6212C19.194 28.6539 19.1966 28.6844 19.1966 28.7061C19.1966 28.7544 19.1966 28.8017 19.1953 28.852C19.1797 29.7041 19.0119 30.4527 18.682 31.1398C18.6715 31.1621 18.6617 31.1853 18.6521 31.2097C18.5838 31.389 18.4525 31.5235 18.2923 31.5784C18.2802 31.5826 18.2678 31.5867 18.2551 31.5896L18.2364 31.594C18.2205 31.5978 18.2036 31.6017 18.1766 31.6074C18.1445 31.615 18.1111 31.6229 18.0752 31.6309L17.7936 31.6951C17.7319 31.7088 17.6681 31.7231 17.6058 31.7371L17.362 31.7911C17.3286 31.7987 17.2949 31.806 17.2606 31.8133L17.1156 31.8448C16.8534 31.9023 16.5534 31.9662 16.2282 32.0336L14.1549 32.4169L14.1619 32.4309C13.9026 32.476 13.6489 32.5183 13.4035 32.5574C12.99 32.6229 12.5832 32.7357 12.1945 32.8937C12.1811 32.8991 12.1678 32.9045 12.1547 32.9099C12.9405 30.8582 13.8343 27.7083 13.5295 26.038L13.5292 26.0386ZM19.7921 28.5696C19.7908 28.554 19.7896 28.5381 19.7883 28.5216C19.787 28.5041 19.7858 28.4863 19.7864 28.4698V28.4653L19.7826 26.9406L19.6364 26.8532C19.2197 26.6037 18.9069 26.3771 18.5897 26.0948C18.5071 26.0217 18.4219 25.9419 18.3211 25.844C18.1552 25.6829 17.9848 25.5062 17.7875 25.3018L17.709 25.2198C17.667 25.1756 17.6273 25.1247 17.5894 25.0666C17.4598 24.8698 17.3472 24.5869 17.3034 24.346C17.2344 23.969 17.1365 23.4488 17.051 22.9923L16.9795 22.6121C16.976 22.5921 16.9722 22.5721 16.968 22.5527L16.9223 22.2994C16.9016 22.1833 16.8816 22.0673 16.8616 21.951C16.8342 21.7914 16.8085 21.6319 16.7831 21.4723C16.7303 21.1389 16.6874 20.8328 16.6524 20.5397L16.6499 20.5159C16.6413 20.4507 16.6343 20.3846 16.627 20.3163C16.6047 20.1183 16.5869 19.932 16.5723 19.747L16.5691 19.7079C16.559 19.5789 16.5504 19.4486 16.5428 19.3183C16.6836 18.9524 18.3774 17.6969 19.7413 16.6858C21.9144 15.0749 24.3772 13.2492 25.2525 11.9368C25.2553 11.9324 25.2582 11.9282 25.261 11.9244C25.2782 11.933 25.2998 11.9448 25.3271 11.96C26.0007 12.3364 26.6806 12.5436 27.2807 12.7267C28.4087 13.0709 29.2996 13.343 29.8488 14.512C30.3078 15.4906 30.5774 16.572 30.673 17.817C30.7115 18.3173 30.7271 18.7909 30.721 19.268C30.7207 19.2963 30.7201 19.3242 30.7198 19.3525C30.7191 19.4081 30.7178 19.4638 30.7159 19.5207C30.7147 19.5674 30.7134 19.6135 30.7115 19.6602L30.7096 19.7088C30.7083 19.7368 30.7074 19.7651 30.7061 19.7931C30.7042 19.8337 30.702 19.8741 30.7001 19.9142C30.6985 19.945 30.6969 19.9761 30.695 20.007C30.6934 20.0337 30.6918 20.0597 30.6899 20.0861C30.6867 20.1344 30.6835 20.1827 30.6797 20.2314C30.6781 20.2533 30.6765 20.2749 30.6746 20.2969C30.6705 20.3506 30.666 20.4046 30.6613 20.4586C30.6603 20.4672 30.6597 20.4761 30.6587 20.4847C30.6559 20.5171 30.6524 20.5499 30.6492 20.5823C30.6425 20.6519 30.6352 20.7218 30.6276 20.7921C30.6238 20.8254 30.6206 20.8585 30.6168 20.8922V20.8928C30.6091 20.9596 30.6009 21.0266 30.5923 21.0943C30.5907 21.1061 30.5894 21.1175 30.5878 21.1293C30.5325 21.5594 30.4594 22.0072 30.3669 22.4869L30.3476 22.5883C30.3167 22.7459 30.2834 22.9096 30.2471 23.0816L30.2392 23.1191C30.2246 23.1877 30.2099 23.257 30.1947 23.3257L30.1553 23.5056C30.141 23.5707 30.1267 23.6365 30.112 23.701L29.9493 24.4086C29.8307 24.5538 29.7157 24.6956 29.6076 24.8294L29.5993 24.8402C29.4442 25.0506 28.5749 26.1103 28.5749 26.1103C28.5132 26.3706 28.2799 27.4176 28.2103 28.6016C28.2068 28.6572 28.204 28.7128 28.2021 28.7647C28.1992 28.8209 28.197 28.8769 28.196 28.9287C28.1948 28.9649 28.1938 29.0005 28.1932 29.0358C28.1652 30.3024 28.361 31.2944 28.7736 31.9809C28.7853 32.0013 28.798 32.0216 28.8085 32.0375C29.1531 32.5839 29.6314 32.9278 30.2344 33.0648C29.8587 33.4386 29.4706 33.8515 29.0665 34.2822C27.4105 36.0469 25.5346 38.0462 23.7505 38.0462C23.7413 38.0462 23.7318 38.0462 23.7225 38.0458C21.7385 38.0226 19.7062 35.7345 17.9132 33.7154C17.719 33.4968 17.5283 33.2822 17.3414 33.0747C17.1939 32.9113 17.0194 32.7193 16.8357 32.5238C16.9759 32.4939 17.1097 32.465 17.2343 32.4377L17.3897 32.404C17.4256 32.3961 17.4612 32.3884 17.4927 32.3811L17.7381 32.3264C17.7991 32.3125 17.8588 32.2991 17.9167 32.2864C17.9272 32.2845 17.937 32.2823 17.9466 32.2797L17.9698 32.2743C17.9834 32.2715 17.9968 32.2683 18.0101 32.2651L18.2101 32.2193C18.2453 32.2114 18.2797 32.2034 18.313 32.1955C18.3353 32.191 18.3582 32.1856 18.3855 32.1793L18.3938 32.1774C18.4316 32.1685 18.464 32.158 18.4882 32.1497C18.8187 32.0362 19.0841 31.7721 19.2154 31.4272C19.2189 31.4187 19.2224 31.4095 19.2265 31.4012C19.5946 30.6342 19.7818 29.8043 19.799 28.866C19.8003 28.813 19.8006 28.7602 19.8006 28.7065C19.7996 28.6585 19.7958 28.6134 19.792 28.5695L19.7921 28.5696ZM31.0292 22.2199C31.0467 22.122 31.0632 22.0263 31.0785 21.9326C31.0852 21.8919 31.0915 21.8518 31.0979 21.8115C31.0982 21.8102 31.0982 21.8089 31.0985 21.8077C31.1023 21.7832 31.1065 21.7584 31.1103 21.7342C31.122 21.6608 31.1328 21.5887 31.143 21.5184C31.1484 21.4828 31.1529 21.4472 31.158 21.4116V21.4107C31.1624 21.3792 31.1672 21.3477 31.1713 21.3163C31.1723 21.3093 31.1735 21.3016 31.1745 21.2924C31.1843 21.2231 31.1926 21.1538 31.2012 21.0839C31.2034 21.0648 31.2056 21.0458 31.2079 21.0264C31.2082 21.0235 31.2085 21.0207 31.2088 21.0175C31.2129 20.9828 31.2171 20.9482 31.2209 20.9142C31.2276 20.8557 31.233 20.7972 31.239 20.7391C31.2431 20.6981 31.2479 20.6567 31.2517 20.6161C31.252 20.6119 31.2527 20.6078 31.253 20.6037L31.2536 20.5967C31.2587 20.5417 31.2641 20.487 31.2686 20.432L31.2698 20.4149C31.2733 20.3713 31.2768 20.3287 31.28 20.2868C31.281 20.276 31.2816 20.2648 31.2826 20.254L31.288 20.1781C31.2934 20.0999 31.2978 20.021 31.3023 19.9416C31.3038 19.9136 31.3051 19.886 31.3064 19.858C31.307 19.8434 31.308 19.8288 31.3086 19.8141C31.3099 19.7862 31.3115 19.7585 31.3118 19.735L31.3137 19.6848C31.315 19.6523 31.3159 19.6202 31.3169 19.5881C31.3181 19.549 31.3191 19.5096 31.3201 19.4705C31.321 19.4334 31.3223 19.3962 31.3226 19.3596C31.3232 19.3304 31.3239 19.3005 31.3239 19.2738C31.3242 19.2604 31.3239 19.2471 31.3239 19.2337C31.3242 19.2118 31.3248 19.1902 31.3248 19.1683C31.4981 19.0532 31.6665 19.0071 31.7994 19.0418C31.9675 19.0853 32.0651 19.2528 32.1172 19.3863C32.3677 20.0239 32.1124 21.1269 31.5597 21.7947L31.5594 21.795C31.3868 22.0057 31.2002 22.1523 31.0292 22.22L31.0292 22.2199ZM32.2755 38.8087L30.9879 43.6009H30.3083L30.2743 43.6028C30.2743 43.6028 30.2699 43.6031 30.26 43.6022L30.2457 43.6009H16.5244L15.2368 38.8087C15.1828 38.6068 14.8856 38.6463 14.8856 38.8551V43.6009H8.67865L9.41797 37.3815C9.59533 35.8857 10.4379 34.5803 11.7297 33.7996C11.949 33.6667 12.1817 33.5498 12.4204 33.4525C12.7662 33.3123 13.1285 33.2116 13.4969 33.1531C13.5903 33.1382 13.685 33.1229 13.7807 33.107C14.0677 33.0597 14.364 33.0082 14.6653 32.9535L15.061 32.8813L15.0524 32.8645L16.1366 32.6649C16.4055 32.9414 16.6779 33.2399 16.8918 33.4773C17.0774 33.6836 17.2672 33.8972 17.4604 34.1146C19.3367 36.227 21.4631 38.6214 23.7138 38.6478C23.7256 38.6478 23.737 38.6481 23.7488 38.6481C25.7942 38.6481 27.7648 36.5478 29.5047 34.6937C30.0412 34.1222 30.5495 33.5812 31.0313 33.1305C31.5119 33.1267 33.6615 33.1118 33.9221 33.1531C35.3503 33.3791 36.5962 34.2169 37.34 35.4518C37.6969 36.0442 37.9194 36.6933 38.0011 37.3811L38.7404 43.6005L32.6266 43.6008V38.855C32.6266 38.6462 32.3294 38.6068 32.2754 38.8086L32.2755 38.8087Z" stroke="white" strokeWidth="0.6" mask="url(#path-3-outside-1_2402_42430)" />
</svg>