<?xml version="1.0" encoding="UTF-8"?>
<svg id="Layer_2" data-name="Layer 2" xmlns="http://www.w3.org/2000/svg" viewBox="0 0 724.52 68.27">
  <defs>
    <style>
      .cls-1 {
        fill: #1d1d1b;
      }
    </style>
  </defs>
  <g id="_Слой_1" data-name="Слой 1">
    <g>
      <path class="cls-1" d="M0,67.22V.48H14.68V53.87H47.96v13.35H0Z"/>
      <path class="cls-1" d="M86.86,68.27c-9.09,0-16.18-2.53-21.26-7.58-5.09-5.05-7.63-12.41-7.63-22.07V.48h14.68V38.23c0,5.34,1.25,9.42,3.77,12.25,2.51,2.83,6.05,4.24,10.63,4.24s8.12-1.37,10.63-4.1c2.51-2.73,3.77-6.71,3.77-11.92V.48h14.68V38.14c0,9.92-2.59,17.42-7.77,22.5-5.18,5.09-12.35,7.63-21.5,7.63Z"/>
      <path class="cls-1" d="M131.1,67.22V.48h15.83l17.54,28.22L182.01,.48h15.83V67.22h-14.59V23.65l-18.78,28.51h-.38l-18.59-28.22v43.29h-14.4Z"/>
      <path class="cls-1" d="M214.52,67.22V.48h14.68V67.22h-14.68Z"/>
      <path class="cls-1" d="M245.89,67.22V.48h50.34V13.54h-35.75v13.54h31.46v13.06h-31.46v14.02h36.23v13.06h-50.82Z"/>
      <path class="cls-1" d="M309.77,67.22V.48h30.51c8.45,0,14.94,2.26,19.45,6.77,3.81,3.81,5.72,8.96,5.72,15.45,0,10.23-4.77,17.13-14.3,20.69l16.3,23.84h-17.16l-14.49-21.36h-11.35v21.36h-14.68Zm14.68-34.32h14.87c3.56,0,6.32-.87,8.29-2.62,1.97-1.75,2.96-4.08,2.96-7.01,0-3.11-1.02-5.48-3.05-7.1-2.04-1.62-4.86-2.43-8.49-2.43h-14.59v19.16Z"/>
      <path class="cls-1" d="M378.71,67.22V.48h50.34V13.54h-35.75v13.54h31.46v13.06h-31.46v14.02h36.23v13.06h-50.82Z"/>
      <path class="cls-1" d="M472.62,67.22V.48h7.53V30.13h38.52V.48h7.53V67.22h-7.53v-30.03h-38.52v30.03h-7.53Z"/>
      <path class="cls-1" d="M539.36,67.22L569.78,0h7.06l30.42,67.22h-8.1l-7.82-17.64h-36.33l-7.91,17.64h-7.72Zm18.59-24.41h30.42l-15.16-34.04-15.26,34.04Z"/>
      <path class="cls-1" d="M620.4,67.22V.48h7.53V60.26h37.57v6.96h-45.1Z"/>
      <path class="cls-1" d="M679.42,67.22V.48h7.53V60.26h37.57v6.96h-45.1Z"/>
    </g>
  </g>
</svg>